<svg width="21" height="16" viewBox="0 0 21 16" fill="none" xmlns="http://www.w3.org/2000/svg">
<path d="M20.7071 8.70723C21.0976 8.31671 21.0976 7.68355 20.7071 7.29302L14.3432 0.929019C13.9527 0.538492 13.3195 0.538488 12.929 0.92901C12.5384 1.31953 12.5384 1.9527 12.929 2.34322L18.5858 8.00011L12.9289 13.6569C12.5384 14.0475 12.5384 14.6806 12.9289 15.0711C13.3194 15.4617 13.9526 15.4617 14.3431 15.0712L20.7071 8.70723ZM-6.10352e-06 9L8.79999 9.00005L8.80001 7.00005L6.10352e-06 7L-6.10352e-06 9ZM8.79999 9.00005L20 9.00012L20 7.00012L8.80001 7.00005L8.79999 9.00005Z" fill="white"/>
</svg>
