<svg width="80" height="134" viewBox="0 0 80 134" fill="none" xmlns="http://www.w3.org/2000/svg">
<path d="M21.4375 37.0781C30.5 28.0156 45.5 28.0156 54.5625 37.0781" stroke="white" stroke-width="3" stroke-miterlimit="10" stroke-linecap="round" stroke-linejoin="round"/>
<path d="M11.7498 27.0781C26.4373 12.3906 50.1875 12.3906 64.875 27.0781" stroke="white" stroke-width="3" stroke-miterlimit="10" stroke-linecap="round" stroke-linejoin="round"/>
<path d="M2.99999 15.8281C22.6875 -2.60938 53.625 -2.60938 73.3125 15.8281" stroke="white" stroke-width="3" stroke-miterlimit="10" stroke-linecap="round" stroke-linejoin="round"/>
<path d="M54.5658 96.3218C45.6628 105.541 30.6651 105.803 21.4458 96.9" stroke="white" stroke-width="3" stroke-miterlimit="10" stroke-linecap="round" stroke-linejoin="round"/>
<path d="M64.4263 106.151C49.9974 121.093 26.2508 121.507 11.3092 107.078" stroke="white" stroke-width="3" stroke-miterlimit="10" stroke-linecap="round" stroke-linejoin="round"/>
<path d="M73.3715 117.247C54.0088 136.025 23.076 136.565 3.0697 118.474" stroke="white" stroke-width="3" stroke-miterlimit="10" stroke-linecap="round" stroke-linejoin="round"/>
<path d="M10.5996 54.3008C12.8145 54.3008 14.6426 54.5703 16.084 55.1094C17.5371 55.6484 18.6152 56.4688 19.3184 57.5703C20.0332 58.6719 20.3906 60.0723 20.3906 61.7715C20.3906 63.0371 20.1562 64.1152 19.6875 65.0059C19.2188 65.8965 18.6035 66.6348 17.8418 67.2207C17.0801 67.8066 16.2656 68.2754 15.3984 68.627L22.6934 80H17.9297L11.7246 69.6992H7.59375V80H3.375V54.3008H10.5996ZM10.3184 57.8164H7.59375V66.2188H10.5117C12.4688 66.2188 13.8867 65.8555 14.7656 65.1289C15.6562 64.4023 16.1016 63.3301 16.1016 61.9121C16.1016 60.4238 15.627 59.3691 14.6777 58.748C13.7402 58.127 12.2871 57.8164 10.3184 57.8164ZM30.5508 80H26.3672V54.3008H40.8867V57.8516H30.5508V65.8672H40.2188V69.4004H30.5508V80ZM45.5625 80V54.3008H49.7812V80H45.5625ZM77.4316 66.9043C77.4316 69.7988 76.8926 72.2188 75.8145 74.1641C74.7363 76.0977 73.1719 77.5566 71.1211 78.541C69.0703 79.5137 66.5977 80 63.7031 80H56.5664V54.3008H64.4766C67.1367 54.3008 69.4336 54.7812 71.3672 55.7422C73.3008 56.6914 74.7949 58.1035 75.8496 59.9785C76.9043 61.8418 77.4316 64.1504 77.4316 66.9043ZM73.0371 67.0273C73.0371 64.918 72.7031 63.1836 72.0352 61.8242C71.3789 60.4648 70.4062 59.457 69.1172 58.8008C67.8398 58.1328 66.2637 57.7988 64.3887 57.7988H60.7852V76.4668H63.7734C66.8789 76.4668 69.1992 75.6758 70.7344 74.0938C72.2695 72.5117 73.0371 70.1562 73.0371 67.0273Z" fill="white"/>
</svg>
