<svg width="23" height="23" viewBox="0 0 23 23" fill="none" xmlns="http://www.w3.org/2000/svg">
<path d="M5.75 19.1667V9.58337H21.0833V19.1667C21.0833 20.2209 20.2208 21.0834 19.1667 21.0834H7.66667C6.6125 21.0834 5.75 20.2209 5.75 19.1667Z" fill="#CFD8DC"/>
<path d="M21.0833 7.66667V10.5417H5.75V7.66667C5.75 6.6125 6.6125 5.75 7.66667 5.75H19.1667C20.2208 5.75 21.0833 6.6125 21.0833 7.66667Z" fill="#78909C"/>
<path d="M17.729 9.10413C18.5229 9.10413 19.1665 8.46054 19.1665 7.66663C19.1665 6.87272 18.5229 6.22913 17.729 6.22913C16.9351 6.22913 16.2915 6.87272 16.2915 7.66663C16.2915 8.46054 16.9351 9.10413 17.729 9.10413Z" fill="#37474F"/>
<path d="M9.58325 9.10413C10.3772 9.10413 11.0208 8.46054 11.0208 7.66663C11.0208 6.87272 10.3772 6.22913 9.58325 6.22913C8.78934 6.22913 8.14575 6.87272 8.14575 7.66663C8.14575 8.46054 8.78934 9.10413 9.58325 9.10413Z" fill="#37474F"/>
<path d="M17.7292 4.79163C17.2021 4.79163 16.7708 5.22288 16.7708 5.74996V7.66663C16.7708 8.19371 17.2021 8.62496 17.7292 8.62496C18.2562 8.62496 18.6875 8.19371 18.6875 7.66663V5.74996C18.6875 5.22288 18.2562 4.79163 17.7292 4.79163ZM9.58333 4.79163C9.05625 4.79163 8.625 5.22288 8.625 5.74996V7.66663C8.625 8.19371 9.05625 8.62496 9.58333 8.62496C10.1104 8.62496 10.5417 8.19371 10.5417 7.66663V5.74996C10.5417 5.22288 10.1104 4.79163 9.58333 4.79163Z" fill="#B0BEC5"/>
<path d="M15.3333 16.2916H17.2499V18.2083H15.3333V16.2916ZM12.4583 16.2916H14.3749V18.2083H12.4583V16.2916ZM9.58325 16.2916H11.4999V18.2083H9.58325V16.2916ZM15.3333 13.4166H17.2499V15.3333H15.3333V13.4166ZM12.4583 13.4166H14.3749V15.3333H12.4583V13.4166ZM9.58325 13.4166H11.4999V15.3333H9.58325V13.4166Z" fill="#90A4AE"/>
<path d="M7.66675 12.9375C10.8424 12.9375 13.4167 10.3631 13.4167 7.1875C13.4167 4.01186 10.8424 1.4375 7.66675 1.4375C4.49111 1.4375 1.91675 4.01186 1.91675 7.1875C1.91675 10.3631 4.49111 12.9375 7.66675 12.9375Z" fill="#F44336"/>
<path d="M7.66675 11.5C10.0485 11.5 11.9792 9.56923 11.9792 7.1875C11.9792 4.80577 10.0485 2.875 7.66675 2.875C5.28502 2.875 3.35425 4.80577 3.35425 7.1875C3.35425 9.56923 5.28502 11.5 7.66675 11.5Z" fill="#EEEEEE"/>
<path d="M7.1875 3.83337H8.14583V7.18754H7.1875V3.83337Z" fill="#08111C"/>
<path d="M9.83162 8.67297L9.1881 9.31697L7.35864 7.48752L8.00264 6.84399L9.83162 8.67297Z" fill="#08111C"/>
<path d="M7.66675 7.90625C8.0637 7.90625 8.3855 7.58445 8.3855 7.1875C8.3855 6.79055 8.0637 6.46875 7.66675 6.46875C7.26979 6.46875 6.948 6.79055 6.948 7.1875C6.948 7.58445 7.26979 7.90625 7.66675 7.90625Z" fill="#08111C"/>
</svg>
