<svg width="23" height="23" viewBox="0 0 23 23" fill="none" xmlns="http://www.w3.org/2000/svg">
<path d="M6.90356 8.52075H7.50444V9.29844H6.90356V8.52075Z" fill="url(#paint0_linear_461_1007)"/>
<path d="M15.3308 8.52075H15.9317V9.29844H15.3308V8.52075Z" fill="url(#paint1_linear_461_1007)"/>
<path d="M11.5149 13.8862C10.9543 13.8862 10.4009 13.9437 9.86182 14.0515V21.5122H13.1537V14.0515C12.6218 13.9437 12.0756 13.8862 11.5149 13.8862Z" fill="url(#paint2_radial_461_1007)"/>
<path d="M11.5149 13.8862C10.9543 13.8862 10.4009 13.9437 9.86182 14.0515V21.5122H13.1537V14.0515C12.6218 13.9437 12.0756 13.8862 11.5149 13.8862Z" fill="url(#paint3_radial_461_1007)"/>
<path d="M9.86188 13.7986C9.42488 13.8949 9.00226 14.0214 8.59473 14.1846V21.5122H9.86188V13.7986Z" fill="url(#paint4_radial_461_1007)"/>
<path d="M9.86188 13.7986C9.42488 13.8949 9.00226 14.0214 8.59473 14.1846V21.5122H9.86188V13.7986Z" fill="url(#paint5_radial_461_1007)"/>
<path d="M9.86188 13.7986C9.42488 13.8949 9.00226 14.0214 8.59473 14.1846V21.5122H9.86188V13.7986Z" fill="url(#paint6_radial_461_1007)"/>
<path d="M13.1379 13.7986C13.5749 13.8949 13.9968 14.0214 14.4051 14.1846V21.5122H13.1387L13.1379 13.7986Z" fill="url(#paint7_radial_461_1007)"/>
<path d="M13.1379 13.7986C13.5749 13.8949 13.9968 14.0214 14.4051 14.1846V21.5122H13.1387L13.1379 13.7986Z" fill="url(#paint8_radial_461_1007)"/>
<path d="M6.02962 15.8247C6.01873 15.8348 6.01005 15.8471 6.00412 15.8607C5.99818 15.8743 5.99512 15.889 5.99512 15.9038V21.5115H7.16956V14.9277C6.76706 15.1937 6.38468 15.4955 6.02962 15.8247Z" fill="url(#paint9_linear_461_1007)"/>
<path d="M6.02962 15.8247C6.01873 15.8348 6.01005 15.8471 6.00412 15.8607C5.99818 15.8743 5.99512 15.889 5.99512 15.9038V21.5115H7.16956V14.9277C6.76706 15.1937 6.38468 15.4955 6.02962 15.8247Z" fill="url(#paint10_radial_461_1007)"/>
<path d="M6.02962 15.8247C6.01873 15.8348 6.01005 15.8471 6.00412 15.8607C5.99818 15.8743 5.99512 15.889 5.99512 15.9038V21.5115H7.16956V14.9277C6.76706 15.1937 6.38468 15.4955 6.02962 15.8247Z" fill="url(#paint11_radial_461_1007)"/>
<path d="M17.0048 15.8564V21.5115H15.8303V14.9277C16.2458 15.203 16.6396 15.515 17.0048 15.8564Z" fill="url(#paint12_radial_461_1007)"/>
<path d="M17.0048 15.8564V21.5115H15.8303V14.9277C16.2458 15.203 16.6396 15.515 17.0048 15.8564Z" fill="url(#paint13_radial_461_1007)"/>
<path d="M7.16943 14.9285V21.5122H8.59471V14.1846C8.09303 14.3858 7.62081 14.6302 7.16943 14.9278" fill="#FFCA44"/>
<path d="M7.16943 14.9285V21.5122H8.59471V14.1846C8.09303 14.3858 7.62081 14.6302 7.16943 14.9278" fill="url(#paint14_radial_461_1007)"/>
<path d="M15.8303 14.9285V21.5122H14.405V14.1846C14.9067 14.3858 15.3789 14.6302 15.8303 14.9278" fill="url(#paint15_linear_461_1007)"/>
<path d="M15.8303 14.9285V21.5122H14.405V14.1846C14.9067 14.3858 15.3789 14.6302 15.8303 14.9278" fill="url(#paint16_radial_461_1007)"/>
<path d="M3.30688 21.5122C3.40751 20.8315 3.55126 20.1595 3.75251 19.509C4.17494 18.1328 4.94768 16.89 5.99501 15.9023V21.5115L3.30688 21.5122Z" fill="url(#paint17_radial_461_1007)"/>
<path d="M3.30688 21.5122C3.40751 20.8315 3.55126 20.1595 3.75251 19.509C4.17494 18.1328 4.94768 16.89 5.99501 15.9023V21.5115L3.30688 21.5122Z" fill="url(#paint18_linear_461_1007)"/>
<path d="M19.693 21.5122C19.5924 20.8315 19.4486 20.1595 19.2474 19.509C18.825 18.1328 18.0522 16.89 17.0049 15.9023V21.5115L19.693 21.5122Z" fill="url(#paint19_radial_461_1007)"/>
<path d="M19.693 21.5122C19.5924 20.8315 19.4486 20.1595 19.2474 19.509C18.825 18.1328 18.0522 16.89 17.0049 15.9023V21.5115L19.693 21.5122Z" fill="url(#paint20_radial_461_1007)"/>
<path d="M9.92578 14.6667C9.96891 15.213 10.3462 16.3069 11.5149 16.3069C12.6836 16.3069 13.061 15.2137 13.1041 14.6667H9.92578Z" fill="url(#paint21_radial_461_1007)"/>
<path d="M9.92578 14.6667C9.96891 15.213 10.3462 16.3069 11.5149 16.3069C12.6836 16.3069 13.061 15.2137 13.1041 14.6667H9.92578Z" fill="url(#paint22_radial_461_1007)"/>
<path d="M9.92578 14.6667C9.96891 15.213 10.3462 16.3069 11.5149 16.3069C12.6836 16.3069 13.061 15.2137 13.1041 14.6667H9.92578Z" fill="url(#paint23_radial_461_1007)"/>
<path d="M15.2209 11.1521C15.4818 11.1442 15.7261 11.0558 15.9245 10.9127V11.6365C15.9264 11.9721 15.8283 12.3006 15.6426 12.5802C15.457 12.8598 15.1923 13.0777 14.8823 13.2063C15.0151 12.9235 15.1044 12.6176 15.1504 12.2884L15.2209 11.1521Z" fill="url(#paint24_radial_461_1007)"/>
<path d="M15.2209 11.1521C15.4818 11.1442 15.7261 11.0558 15.9245 10.9127V11.6365C15.9264 11.9721 15.8283 12.3006 15.6426 12.5802C15.457 12.8598 15.1923 13.0777 14.8823 13.2063C15.0151 12.9235 15.1044 12.6176 15.1504 12.2884L15.2209 11.1521Z" fill="url(#paint25_radial_461_1007)"/>
<path d="M7.66167 11.1521C7.40828 11.1442 7.163 11.0609 6.9573 10.9127V11.6365C6.95548 11.9722 7.05371 12.3008 7.23947 12.5804C7.42522 12.8599 7.69007 13.0778 8.00021 13.2063C7.86459 12.9157 7.77395 12.6062 7.73139 12.2884L7.66167 11.1521Z" fill="url(#paint26_radial_461_1007)"/>
<path d="M7.66167 11.1521C7.40828 11.1442 7.163 11.0609 6.9573 10.9127V11.6365C6.95548 11.9722 7.05371 12.3008 7.23947 12.5804C7.42522 12.8599 7.69007 13.0778 8.00021 13.2063C7.86459 12.9157 7.77395 12.6062 7.73139 12.2884L7.66167 11.1521Z" fill="url(#paint27_radial_461_1007)"/>
<g filter="url(#filter0_ii_461_1007)">
<path d="M7.68982 12.3301C7.78598 13.0631 8.14554 13.7361 8.7014 14.2234C9.25727 14.7108 9.97147 14.9792 10.7107 14.9787H12.1777C12.9171 14.9794 13.6314 14.711 14.1875 14.2237C14.7435 13.7363 15.1031 13.0632 15.1993 12.3301C15.2906 10.866 15.3833 9.40697 15.4509 7.94288C15.4474 7.6558 15.3346 7.38083 15.1355 7.17399C14.9364 6.96714 14.666 6.84396 14.3792 6.82953H13.2896C12.9252 6.82912 12.5687 6.72296 12.2634 6.52393C11.9581 6.32491 11.7171 6.04157 11.5696 5.70828C11.5314 5.6126 11.4655 5.53049 11.3804 5.47249C11.2952 5.41448 11.1947 5.38322 11.0917 5.38269H10.1019C8.6666 5.38269 7.50366 6.55857 7.50366 8.00972C7.50366 9.45657 7.59422 10.8797 7.6891 12.3301" fill="url(#paint28_radial_461_1007)"/>
</g>
<path d="M7.68982 12.3301C7.78598 13.0631 8.14554 13.7361 8.7014 14.2234C9.25727 14.7108 9.97147 14.9792 10.7107 14.9787H12.1777C12.9171 14.9794 13.6314 14.711 14.1875 14.2237C14.7435 13.7363 15.1031 13.0632 15.1993 12.3301C15.2906 10.866 15.3833 9.40697 15.4509 7.94288C15.4474 7.6558 15.3346 7.38083 15.1355 7.17399C14.9364 6.96714 14.666 6.84396 14.3792 6.82953H13.2896C12.9252 6.82912 12.5687 6.72296 12.2634 6.52393C11.9581 6.32491 11.7171 6.04157 11.5696 5.70828C11.5314 5.6126 11.4655 5.53049 11.3804 5.47249C11.2952 5.41448 11.1947 5.38322 11.0917 5.38269H10.1019C8.6666 5.38269 7.50366 6.55857 7.50366 8.00972C7.50366 9.45657 7.59422 10.8797 7.6891 12.3301" fill="url(#paint29_radial_461_1007)"/>
<path d="M7.68982 12.3301C7.78598 13.0631 8.14554 13.7361 8.7014 14.2234C9.25727 14.7108 9.97147 14.9792 10.7107 14.9787H12.1777C12.9171 14.9794 13.6314 14.711 14.1875 14.2237C14.7435 13.7363 15.1031 13.0632 15.1993 12.3301C15.2906 10.866 15.3833 9.40697 15.4509 7.94288C15.4474 7.6558 15.3346 7.38083 15.1355 7.17399C14.9364 6.96714 14.666 6.84396 14.3792 6.82953H13.2896C12.9252 6.82912 12.5687 6.72296 12.2634 6.52393C11.9581 6.32491 11.7171 6.04157 11.5696 5.70828C11.5314 5.6126 11.4655 5.53049 11.3804 5.47249C11.2952 5.41448 11.1947 5.38322 11.0917 5.38269H10.1019C8.6666 5.38269 7.50366 6.55857 7.50366 8.00972C7.50366 9.45657 7.59422 10.8797 7.6891 12.3301" fill="url(#paint30_radial_461_1007)"/>
<path d="M7.68982 12.3301C7.78598 13.0631 8.14554 13.7361 8.7014 14.2234C9.25727 14.7108 9.97147 14.9792 10.7107 14.9787H12.1777C12.9171 14.9794 13.6314 14.711 14.1875 14.2237C14.7435 13.7363 15.1031 13.0632 15.1993 12.3301C15.2906 10.866 15.3833 9.40697 15.4509 7.94288C15.4474 7.6558 15.3346 7.38083 15.1355 7.17399C14.9364 6.96714 14.666 6.84396 14.3792 6.82953H13.2896C12.9252 6.82912 12.5687 6.72296 12.2634 6.52393C11.9581 6.32491 11.7171 6.04157 11.5696 5.70828C11.5314 5.6126 11.4655 5.53049 11.3804 5.47249C11.2952 5.41448 11.1947 5.38322 11.0917 5.38269H10.1019C8.6666 5.38269 7.50366 6.55857 7.50366 8.00972C7.50366 9.45657 7.59422 10.8797 7.6891 12.3301" fill="url(#paint31_radial_461_1007)"/>
<path d="M7.68982 12.3301C7.78598 13.0631 8.14554 13.7361 8.7014 14.2234C9.25727 14.7108 9.97147 14.9792 10.7107 14.9787H12.1777C12.9171 14.9794 13.6314 14.711 14.1875 14.2237C14.7435 13.7363 15.1031 13.0632 15.1993 12.3301C15.2906 10.866 15.3833 9.40697 15.4509 7.94288C15.4474 7.6558 15.3346 7.38083 15.1355 7.17399C14.9364 6.96714 14.666 6.84396 14.3792 6.82953H13.2896C12.9252 6.82912 12.5687 6.72296 12.2634 6.52393C11.9581 6.32491 11.7171 6.04157 11.5696 5.70828C11.5314 5.6126 11.4655 5.53049 11.3804 5.47249C11.2952 5.41448 11.1947 5.38322 11.0917 5.38269H10.1019C8.6666 5.38269 7.50366 6.55857 7.50366 8.00972C7.50366 9.45657 7.59422 10.8797 7.6891 12.3301" fill="url(#paint32_radial_461_1007)"/>
<path d="M7.68982 12.3301C7.78598 13.0631 8.14554 13.7361 8.7014 14.2234C9.25727 14.7108 9.97147 14.9792 10.7107 14.9787H12.1777C12.9171 14.9794 13.6314 14.711 14.1875 14.2237C14.7435 13.7363 15.1031 13.0632 15.1993 12.3301C15.2906 10.866 15.3833 9.40697 15.4509 7.94288C15.4474 7.6558 15.3346 7.38083 15.1355 7.17399C14.9364 6.96714 14.666 6.84396 14.3792 6.82953H13.2896C12.9252 6.82912 12.5687 6.72296 12.2634 6.52393C11.9581 6.32491 11.7171 6.04157 11.5696 5.70828C11.5314 5.6126 11.4655 5.53049 11.3804 5.47249C11.2952 5.41448 11.1947 5.38322 11.0917 5.38269H10.1019C8.6666 5.38269 7.50366 6.55857 7.50366 8.00972C7.50366 9.45657 7.59422 10.8797 7.6891 12.3301" fill="url(#paint33_radial_461_1007)"/>
<path d="M7.68982 12.3301C7.78598 13.0631 8.14554 13.7361 8.7014 14.2234C9.25727 14.7108 9.97147 14.9792 10.7107 14.9787H12.1777C12.9171 14.9794 13.6314 14.711 14.1875 14.2237C14.7435 13.7363 15.1031 13.0632 15.1993 12.3301C15.2906 10.866 15.3833 9.40697 15.4509 7.94288C15.4474 7.6558 15.3346 7.38083 15.1355 7.17399C14.9364 6.96714 14.666 6.84396 14.3792 6.82953H13.2896C12.9252 6.82912 12.5687 6.72296 12.2634 6.52393C11.9581 6.32491 11.7171 6.04157 11.5696 5.70828C11.5314 5.6126 11.4655 5.53049 11.3804 5.47249C11.2952 5.41448 11.1947 5.38322 11.0917 5.38269H10.1019C8.6666 5.38269 7.50366 6.55857 7.50366 8.00972C7.50366 9.45657 7.59422 10.8797 7.6891 12.3301" fill="url(#paint34_radial_461_1007)"/>
<g filter="url(#filter1_f_461_1007)">
<path d="M11.0635 9.77709L10.5698 11.2067C10.485 11.5007 10.6876 11.7946 10.9744 11.7946H11.5854C11.8729 11.7946 12.0748 11.4956 11.9907 11.2067L11.5775 9.77637C11.489 9.46012 11.1563 9.46084 11.0635 9.77709Z" fill="#EE9020"/>
</g>
<g filter="url(#filter2_f_461_1007)">
<path d="M11.1442 9.62403L10.7309 11.0543C10.6468 11.3483 10.8488 11.6423 11.1356 11.6423H11.7465C12.034 11.6423 12.236 11.3433 12.1519 11.0543L11.7386 9.62403C11.6502 9.30778 11.2369 9.30778 11.1442 9.62403Z" fill="#FFB120"/>
<path d="M11.1442 9.62403L10.7309 11.0543C10.6468 11.3483 10.8488 11.6423 11.1356 11.6423H11.7465C12.034 11.6423 12.236 11.3433 12.1519 11.0543L11.7386 9.62403C11.6502 9.30778 11.2369 9.30778 11.1442 9.62403Z" fill="url(#paint35_linear_461_1007)"/>
<path d="M11.1442 9.62403L10.7309 11.0543C10.6468 11.3483 10.8488 11.6423 11.1356 11.6423H11.7465C12.034 11.6423 12.236 11.3433 12.1519 11.0543L11.7386 9.62403C11.6502 9.30778 11.2369 9.30778 11.1442 9.62403Z" fill="url(#paint36_radial_461_1007)"/>
<path d="M11.1442 9.62403L10.7309 11.0543C10.6468 11.3483 10.8488 11.6423 11.1356 11.6423H11.7465C12.034 11.6423 12.236 11.3433 12.1519 11.0543L11.7386 9.62403C11.6502 9.30778 11.2369 9.30778 11.1442 9.62403Z" fill="url(#paint37_linear_461_1007)"/>
</g>
<g filter="url(#filter3_f_461_1007)">
<path d="M11.1442 9.48754L10.7309 10.9164C10.6468 11.2104 10.8488 11.5044 11.1356 11.5044H11.7465C12.034 11.5044 12.236 11.2061 12.1519 10.9164L11.7386 9.48682C11.6502 9.17057 11.2369 9.17129 11.1442 9.48754Z" fill="url(#paint38_linear_461_1007)"/>
</g>
<g filter="url(#filter4_f_461_1007)">
<path d="M10.3887 12.1295C10.6928 12.2877 11.055 12.379 11.441 12.379C11.8067 12.3817 12.1677 12.2962 12.4932 12.1295C12.5265 12.112 12.5653 12.1058 12.6024 12.1119C12.6395 12.118 12.6736 12.1361 12.6995 12.1633C12.7484 12.2136 12.7664 12.2956 12.7175 12.3696M10.3887 12.1295L12.6722 12.3401M10.3887 12.1295C10.3553 12.1123 10.317 12.1064 10.2799 12.1129C10.2428 12.1194 10.2088 12.1379 10.1832 12.1655C10.1563 12.1919 10.1396 12.227 10.1363 12.2646C10.1331 12.3021 10.1433 12.3396 10.1652 12.3703M10.3887 12.1295L10.2105 12.3401M12.7175 12.3696L12.6722 12.3401M12.7175 12.3696C12.4472 12.7793 11.9772 13.0517 11.441 13.0517C10.9062 13.0517 10.4355 12.7786 10.1652 12.3703M12.6722 12.3401C12.412 12.7347 11.9578 12.9978 11.441 12.9978C10.9242 12.9978 10.4707 12.7347 10.2105 12.3401M10.1652 12.3703L10.2105 12.3401M10.1652 12.3703V12.3696L10.2105 12.3401" stroke="url(#paint39_radial_461_1007)" stroke-width="0.15"/>
</g>
<path d="M11.4409 12.433C11.0668 12.4354 10.6975 12.3479 10.3643 12.1778C10.2572 12.1232 10.1429 12.2432 10.2104 12.3403C10.4706 12.7349 10.9242 12.9979 11.4409 12.9979C11.9584 12.9979 12.4113 12.7349 12.6722 12.3403C12.739 12.2396 12.6247 12.1232 12.5183 12.1771C12.1854 12.3489 11.8156 12.4367 11.4409 12.433Z" fill="url(#paint40_radial_461_1007)"/>
<path d="M13.3004 8.88586C13.8086 8.88586 14.2369 9.2359 14.3541 9.70883C14.362 9.74041 14.3625 9.77338 14.3557 9.80521C14.3489 9.83705 14.3349 9.8669 14.3148 9.89249C14.2947 9.91809 14.269 9.93874 14.2397 9.95288C14.2104 9.96701 14.1782 9.97426 14.1457 9.97405H12.4113C12.385 9.97404 12.3591 9.96827 12.3353 9.95715C12.3115 9.94603 12.2904 9.92982 12.2736 9.90967C12.2567 9.88953 12.2445 9.86593 12.2377 9.84054C12.231 9.81516 12.2299 9.7886 12.2345 9.76274C12.2829 9.51562 12.4156 9.29301 12.6101 9.13303C12.8046 8.97306 13.0486 8.88568 13.3004 8.88586Z" fill="white"/>
<path d="M13.1394 9.09717C13.2461 9.09739 13.3512 9.12217 13.4467 9.16958C13.5422 9.21699 13.6255 9.28576 13.6902 9.37056C13.7548 9.45536 13.799 9.55391 13.8195 9.65856C13.8399 9.76322 13.8359 9.87117 13.8079 9.97404H12.4674C12.4399 9.87091 12.4364 9.76284 12.4573 9.65816C12.4781 9.55347 12.5227 9.45498 12.5877 9.37026C12.6526 9.28554 12.7361 9.21686 12.8318 9.16951C12.9274 9.12216 13.0327 9.09741 13.1394 9.09717Z" fill="url(#paint41_radial_461_1007)"/>
<path d="M12.742 9.7908C12.7417 9.73853 12.7518 9.68671 12.7716 9.63836C12.7915 9.59001 12.8208 9.54608 12.8578 9.50911C12.8947 9.47215 12.9386 9.44288 12.987 9.42301C13.0354 9.40314 13.0872 9.39305 13.1394 9.39334C13.208 9.39255 13.2756 9.40963 13.3356 9.44289C13.3956 9.47615 13.4459 9.52444 13.4816 9.58303C13.5173 9.64161 13.5371 9.70848 13.5391 9.77704C13.5411 9.8456 13.5252 9.91351 13.4931 9.97409H12.7894C12.7575 9.91833 12.7411 9.85504 12.742 9.7908Z" fill="#08111C"/>
<g filter="url(#filter5_f_461_1007)">
<path d="M13.0899 9.24314C13.1395 9.30998 13.036 9.39048 12.9174 9.47889C12.8002 9.56658 12.7126 9.62839 12.663 9.56226C12.6134 9.49614 12.6687 9.37108 12.7866 9.28267C12.9045 9.19498 13.0403 9.17701 13.0899 9.24386" fill="#C7A7A3"/>
<path d="M13.0899 9.24314C13.1395 9.30998 13.036 9.39048 12.9174 9.47889C12.8002 9.56658 12.7126 9.62839 12.663 9.56226C12.6134 9.49614 12.6687 9.37108 12.7866 9.28267C12.9045 9.19498 13.0403 9.17701 13.0899 9.24386" fill="url(#paint42_radial_461_1007)"/>
</g>
<g filter="url(#filter6_f_461_1007)">
<path d="M13.7584 9.70018C13.7383 9.5641 13.6753 9.43796 13.5787 9.34009L13.376 9.56218L13.4673 9.73971L13.7584 9.70018Z" fill="url(#paint43_linear_461_1007)"/>
</g>
<path d="M9.58227 8.88586C9.33998 8.88574 9.10461 8.96669 8.91366 9.11584C8.72271 9.26498 8.58715 9.47373 8.52859 9.70883C8.52069 9.74041 8.52013 9.77338 8.52693 9.80521C8.53374 9.83705 8.54773 9.8669 8.56785 9.89249C8.58796 9.91809 8.61366 9.93874 8.64298 9.95288C8.67231 9.96701 8.70447 9.97426 8.73702 9.97405H10.4714C10.5821 9.97405 10.6705 9.87343 10.6482 9.76274C10.5991 9.51599 10.4661 9.29385 10.2718 9.13401C10.0775 8.97418 9.83386 8.8865 9.58227 8.88586Z" fill="white"/>
<path d="M9.74341 9.09717C9.63678 9.09739 9.53164 9.12217 9.43613 9.16958C9.34062 9.21699 9.25732 9.28576 9.19267 9.37056C9.12803 9.45536 9.08379 9.55391 9.06338 9.65856C9.04297 9.76322 9.04693 9.87117 9.07497 9.97404H10.4154C10.4317 9.91429 10.4401 9.85268 10.4406 9.79076C10.4396 9.60648 10.3658 9.43007 10.2351 9.3001C10.1045 9.17013 9.92769 9.09717 9.74341 9.09717Z" fill="url(#paint44_radial_461_1007)"/>
<path d="M10.1408 9.7908C10.1411 9.73853 10.131 9.68671 10.1111 9.63836C10.0913 9.59001 10.062 9.54608 10.025 9.50911C9.98806 9.47215 9.94413 9.44288 9.89578 9.42301C9.84743 9.40314 9.79561 9.39305 9.74334 9.39334C9.67475 9.39255 9.60714 9.40963 9.54714 9.44289C9.48715 9.47615 9.43685 9.52444 9.40118 9.58303C9.3655 9.64161 9.34569 9.70848 9.34368 9.77704C9.34167 9.8456 9.35753 9.91351 9.38971 9.97409H10.0934C10.1238 9.91774 10.1401 9.85484 10.1408 9.7908Z" fill="#08111C"/>
<g filter="url(#filter7_f_461_1007)">
<path d="M10.3788 9.71028C10.3788 9.48603 10.1955 9.33653 10.1459 9.29053L9.92163 9.50831L10.0596 9.78934L10.3788 9.71028Z" fill="url(#paint45_linear_461_1007)"/>
</g>
<g filter="url(#filter8_f_461_1007)">
<path d="M9.60588 9.52925C9.75391 9.45083 9.84167 9.32641 9.8019 9.25134C9.76213 9.17628 9.60989 9.179 9.46187 9.25742C9.31385 9.33584 9.22609 9.46027 9.26585 9.53533C9.30562 9.6104 9.45786 9.60767 9.60588 9.52925Z" fill="#C7A7A3" fill-opacity="0.9"/>
<path d="M9.60588 9.52925C9.75391 9.45083 9.84167 9.32641 9.8019 9.25134C9.76213 9.17628 9.60989 9.179 9.46187 9.25742C9.31385 9.33584 9.22609 9.46027 9.26585 9.53533C9.30562 9.6104 9.45786 9.60767 9.60588 9.52925Z" fill="url(#paint46_radial_461_1007)"/>
</g>
<path d="M15.2683 11.2233C15.3186 10.396 15.3689 9.56947 15.4121 8.74219C15.7137 8.79579 15.9852 8.95819 16.1751 9.19861C16.365 9.43902 16.4601 9.74075 16.4424 10.0466C16.4247 10.3525 16.2953 10.6412 16.079 10.8581C15.8626 11.0749 15.5741 11.2049 15.2683 11.2233Z" fill="url(#paint47_linear_461_1007)"/>
<path d="M15.2683 11.2233C15.3186 10.396 15.3689 9.56947 15.4121 8.74219C15.7137 8.79579 15.9852 8.95819 16.1751 9.19861C16.365 9.43902 16.4601 9.74075 16.4424 10.0466C16.4247 10.3525 16.2953 10.6412 16.079 10.8581C15.8626 11.0749 15.5741 11.2049 15.2683 11.2233Z" fill="url(#paint48_radial_461_1007)"/>
<path d="M15.2683 11.2233C15.3186 10.396 15.3689 9.56947 15.4121 8.74219C15.7137 8.79579 15.9852 8.95819 16.1751 9.19861C16.365 9.43902 16.4601 9.74075 16.4424 10.0466C16.4247 10.3525 16.2953 10.6412 16.079 10.8581C15.8626 11.0749 15.5741 11.2049 15.2683 11.2233Z" fill="url(#paint49_radial_461_1007)"/>
<path d="M7.51148 8.73499C7.20393 8.77878 6.92366 8.9354 6.72519 9.17439C6.52673 9.41337 6.42425 9.71764 6.4377 10.028C6.45114 10.3384 6.57955 10.6326 6.79795 10.8536C7.01634 11.0745 7.3091 11.2063 7.61929 11.2233C7.56625 10.3947 7.5303 9.56508 7.51148 8.73499Z" fill="url(#paint50_linear_461_1007)"/>
<path d="M7.51148 8.73499C7.20393 8.77878 6.92366 8.9354 6.72519 9.17439C6.52673 9.41337 6.42425 9.71764 6.4377 10.028C6.45114 10.3384 6.57955 10.6326 6.79795 10.8536C7.01634 11.0745 7.3091 11.2063 7.61929 11.2233C7.56625 10.3947 7.5303 9.56508 7.51148 8.73499Z" fill="url(#paint51_radial_461_1007)"/>
<g filter="url(#filter9_f_461_1007)">
<path d="M7.52525 9.24963C7.3554 9.28818 7.20449 9.38515 7.09885 9.52362C6.99321 9.66209 6.93956 9.83327 6.94726 10.0073C6.95496 10.1813 7.02353 10.347 7.14099 10.4756C7.25845 10.6042 7.41735 10.6875 7.58994 10.7109C7.56248 10.2241 7.54091 9.73695 7.52525 9.24963Z" fill="#E08126"/>
</g>
<g filter="url(#filter10_f_461_1007)">
<path d="M15.2993 10.7165C15.3295 10.2234 15.3583 9.73037 15.3856 9.2373C15.5717 9.26186 15.7416 9.35594 15.8612 9.50064C15.9808 9.64534 16.0412 9.82994 16.0303 10.0173C16.0193 10.2048 15.9379 10.3811 15.8023 10.5109C15.6667 10.6407 15.487 10.7144 15.2993 10.7172" fill="#FFC837"/>
</g>
<g filter="url(#filter11_f_461_1007)">
<path d="M13.871 8.06003C15.2345 8.06003 16.3399 7.94483 16.3399 7.80272C16.3399 7.66061 15.2345 7.54541 13.871 7.54541C12.5075 7.54541 11.4021 7.66061 11.4021 7.80272C11.4021 7.94483 12.5075 8.06003 13.871 8.06003Z" fill="#FFF060"/>
</g>
<path d="M7.02294 5.15916C7.02294 4.3776 7.33341 3.62805 7.88605 3.0754C8.4387 2.52275 9.18825 2.21228 9.96981 2.21228H12.8362C13.2232 2.21228 13.6064 2.2885 13.9639 2.4366C14.3214 2.58469 14.6463 2.80176 14.9199 3.0754C15.1936 3.34904 15.4106 3.6739 15.5587 4.03143C15.7068 4.38897 15.7831 4.77217 15.7831 5.15916V7.08684H7.02222L7.02294 5.15916Z" fill="url(#paint52_radial_461_1007)"/>
<path d="M7.02294 5.15916C7.02294 4.3776 7.33341 3.62805 7.88605 3.0754C8.4387 2.52275 9.18825 2.21228 9.96981 2.21228H12.8362C13.2232 2.21228 13.6064 2.2885 13.9639 2.4366C14.3214 2.58469 14.6463 2.80176 14.9199 3.0754C15.1936 3.34904 15.4106 3.6739 15.5587 4.03143C15.7068 4.38897 15.7831 4.77217 15.7831 5.15916V7.08684H7.02222L7.02294 5.15916Z" fill="url(#paint53_radial_461_1007)"/>
<path d="M7.02294 5.15916C7.02294 4.3776 7.33341 3.62805 7.88605 3.0754C8.4387 2.52275 9.18825 2.21228 9.96981 2.21228H12.8362C13.2232 2.21228 13.6064 2.2885 13.9639 2.4366C14.3214 2.58469 14.6463 2.80176 14.9199 3.0754C15.1936 3.34904 15.4106 3.6739 15.5587 4.03143C15.7068 4.38897 15.7831 4.77217 15.7831 5.15916V7.08684H7.02222L7.02294 5.15916Z" fill="url(#paint54_radial_461_1007)"/>
<path d="M7.02294 5.15916C7.02294 4.3776 7.33341 3.62805 7.88605 3.0754C8.4387 2.52275 9.18825 2.21228 9.96981 2.21228H12.8362C13.2232 2.21228 13.6064 2.2885 13.9639 2.4366C14.3214 2.58469 14.6463 2.80176 14.9199 3.0754C15.1936 3.34904 15.4106 3.6739 15.5587 4.03143C15.7068 4.38897 15.7831 4.77217 15.7831 5.15916V7.08684H7.02222L7.02294 5.15916Z" fill="url(#paint55_radial_461_1007)"/>
<path d="M7.02294 5.15916C7.02294 4.3776 7.33341 3.62805 7.88605 3.0754C8.4387 2.52275 9.18825 2.21228 9.96981 2.21228H12.8362C13.2232 2.21228 13.6064 2.2885 13.9639 2.4366C14.3214 2.58469 14.6463 2.80176 14.9199 3.0754C15.1936 3.34904 15.4106 3.6739 15.5587 4.03143C15.7068 4.38897 15.7831 4.77217 15.7831 5.15916V7.08684H7.02222L7.02294 5.15916Z" fill="url(#paint56_radial_461_1007)"/>
<path d="M7.02294 5.15916C7.02294 4.3776 7.33341 3.62805 7.88605 3.0754C8.4387 2.52275 9.18825 2.21228 9.96981 2.21228H12.8362C13.2232 2.21228 13.6064 2.2885 13.9639 2.4366C14.3214 2.58469 14.6463 2.80176 14.9199 3.0754C15.1936 3.34904 15.4106 3.6739 15.5587 4.03143C15.7068 4.38897 15.7831 4.77217 15.7831 5.15916V7.08684H7.02222L7.02294 5.15916Z" fill="url(#paint57_radial_461_1007)"/>
<path d="M7.02294 5.15916C7.02294 4.3776 7.33341 3.62805 7.88605 3.0754C8.4387 2.52275 9.18825 2.21228 9.96981 2.21228H12.8362C13.2232 2.21228 13.6064 2.2885 13.9639 2.4366C14.3214 2.58469 14.6463 2.80176 14.9199 3.0754C15.1936 3.34904 15.4106 3.6739 15.5587 4.03143C15.7068 4.38897 15.7831 4.77217 15.7831 5.15916V7.08684H7.02222L7.02294 5.15916Z" fill="url(#paint58_linear_461_1007)"/>
<path d="M7.02294 5.15916C7.02294 4.3776 7.33341 3.62805 7.88605 3.0754C8.4387 2.52275 9.18825 2.21228 9.96981 2.21228H12.8362C13.2232 2.21228 13.6064 2.2885 13.9639 2.4366C14.3214 2.58469 14.6463 2.80176 14.9199 3.0754C15.1936 3.34904 15.4106 3.6739 15.5587 4.03143C15.7068 4.38897 15.7831 4.77217 15.7831 5.15916V7.08684H7.02222L7.02294 5.15916Z" fill="url(#paint59_radial_461_1007)"/>
<g filter="url(#filter12_ii_461_1007)">
<path d="M10.5044 1.48779H12.2222C12.8181 1.48779 13.3003 1.9212 13.3003 2.66151V7.54542H9.42627V2.66151C9.42627 1.9212 9.90855 1.48779 10.5044 1.48779Z" fill="url(#paint60_linear_461_1007)"/>
<path d="M10.5044 1.48779H12.2222C12.8181 1.48779 13.3003 1.9212 13.3003 2.66151V7.54542H9.42627V2.66151C9.42627 1.9212 9.90855 1.48779 10.5044 1.48779Z" fill="url(#paint61_linear_461_1007)"/>
<path d="M10.5044 1.48779H12.2222C12.8181 1.48779 13.3003 1.9212 13.3003 2.66151V7.54542H9.42627V2.66151C9.42627 1.9212 9.90855 1.48779 10.5044 1.48779Z" fill="url(#paint62_radial_461_1007)"/>
<path d="M10.5044 1.48779H12.2222C12.8181 1.48779 13.3003 1.9212 13.3003 2.66151V7.54542H9.42627V2.66151C9.42627 1.9212 9.90855 1.48779 10.5044 1.48779Z" fill="url(#paint63_radial_461_1007)"/>
</g>
<path d="M16.0037 7.07386H6.95177C6.84294 7.07386 6.73517 7.0953 6.63463 7.13695C6.53408 7.17859 6.44273 7.23964 6.36577 7.31659C6.28882 7.39354 6.22778 7.4849 6.18613 7.58545C6.14448 7.68599 6.12305 7.79375 6.12305 7.90258C6.12305 8.01141 6.14448 8.11918 6.18613 8.21972C6.22778 8.32026 6.28882 8.41162 6.36577 8.48858C6.44273 8.56553 6.53408 8.62657 6.63463 8.66822C6.73517 8.70987 6.84294 8.7313 6.95177 8.7313H16.0037C16.4651 8.7313 16.8324 8.35755 16.8324 7.90258C16.833 7.79359 16.8119 7.68557 16.7705 7.58477C16.7291 7.48397 16.668 7.39238 16.591 7.31532C16.5139 7.23825 16.4223 7.17723 16.3215 7.13578C16.2207 7.09434 16.1127 7.07329 16.0037 7.07386Z" fill="url(#paint64_linear_461_1007)"/>
<path d="M16.0037 7.07386H6.95177C6.84294 7.07386 6.73517 7.0953 6.63463 7.13695C6.53408 7.17859 6.44273 7.23964 6.36577 7.31659C6.28882 7.39354 6.22778 7.4849 6.18613 7.58545C6.14448 7.68599 6.12305 7.79375 6.12305 7.90258C6.12305 8.01141 6.14448 8.11918 6.18613 8.21972C6.22778 8.32026 6.28882 8.41162 6.36577 8.48858C6.44273 8.56553 6.53408 8.62657 6.63463 8.66822C6.73517 8.70987 6.84294 8.7313 6.95177 8.7313H16.0037C16.4651 8.7313 16.8324 8.35755 16.8324 7.90258C16.833 7.79359 16.8119 7.68557 16.7705 7.58477C16.7291 7.48397 16.668 7.39238 16.591 7.31532C16.5139 7.23825 16.4223 7.17723 16.3215 7.13578C16.2207 7.09434 16.1127 7.07329 16.0037 7.07386Z" fill="url(#paint65_linear_461_1007)"/>
<path d="M16.0037 7.07386H6.95177C6.84294 7.07386 6.73517 7.0953 6.63463 7.13695C6.53408 7.17859 6.44273 7.23964 6.36577 7.31659C6.28882 7.39354 6.22778 7.4849 6.18613 7.58545C6.14448 7.68599 6.12305 7.79375 6.12305 7.90258C6.12305 8.01141 6.14448 8.11918 6.18613 8.21972C6.22778 8.32026 6.28882 8.41162 6.36577 8.48858C6.44273 8.56553 6.53408 8.62657 6.63463 8.66822C6.73517 8.70987 6.84294 8.7313 6.95177 8.7313H16.0037C16.4651 8.7313 16.8324 8.35755 16.8324 7.90258C16.833 7.79359 16.8119 7.68557 16.7705 7.58477C16.7291 7.48397 16.668 7.39238 16.591 7.31532C16.5139 7.23825 16.4223 7.17723 16.3215 7.13578C16.2207 7.09434 16.1127 7.07329 16.0037 7.07386Z" fill="url(#paint66_linear_461_1007)"/>
<path d="M16.0037 7.07386H6.95177C6.84294 7.07386 6.73517 7.0953 6.63463 7.13695C6.53408 7.17859 6.44273 7.23964 6.36577 7.31659C6.28882 7.39354 6.22778 7.4849 6.18613 7.58545C6.14448 7.68599 6.12305 7.79375 6.12305 7.90258C6.12305 8.01141 6.14448 8.11918 6.18613 8.21972C6.22778 8.32026 6.28882 8.41162 6.36577 8.48858C6.44273 8.56553 6.53408 8.62657 6.63463 8.66822C6.73517 8.70987 6.84294 8.7313 6.95177 8.7313H16.0037C16.4651 8.7313 16.8324 8.35755 16.8324 7.90258C16.833 7.79359 16.8119 7.68557 16.7705 7.58477C16.7291 7.48397 16.668 7.39238 16.591 7.31532C16.5139 7.23825 16.4223 7.17723 16.3215 7.13578C16.2207 7.09434 16.1127 7.07329 16.0037 7.07386Z" fill="url(#paint67_radial_461_1007)"/>
<g filter="url(#filter13_f_461_1007)">
<path d="M13.8927 7.99254C15.0149 7.99254 15.9247 7.90758 15.9247 7.80279C15.9247 7.69799 15.0149 7.61304 13.8927 7.61304C12.7706 7.61304 11.8608 7.69799 11.8608 7.80279C11.8608 7.90758 12.7706 7.99254 13.8927 7.99254Z" fill="#FFF060"/>
</g>
<defs>
<filter id="filter0_ii_461_1007" x="7.50366" y="5.38269" width="8.44727" height="9.79607" filterUnits="userSpaceOnUse" color-interpolation-filters="sRGB">
<feFlood flood-opacity="0" result="BackgroundImageFix"/>
<feBlend mode="normal" in="SourceGraphic" in2="BackgroundImageFix" result="shape"/>
<feColorMatrix in="SourceAlpha" type="matrix" values="0 0 0 0 0 0 0 0 0 0 0 0 0 0 0 0 0 0 127 0" result="hardAlpha"/>
<feOffset dx="0.5"/>
<feGaussianBlur stdDeviation="0.5"/>
<feComposite in2="hardAlpha" operator="arithmetic" k2="-1" k3="1"/>
<feColorMatrix type="matrix" values="0 0 0 0 0.823529 0 0 0 0 0.623529 0 0 0 0 0.313726 0 0 0 1 0"/>
<feBlend mode="normal" in2="shape" result="effect1_innerShadow_461_1007"/>
<feColorMatrix in="SourceAlpha" type="matrix" values="0 0 0 0 0 0 0 0 0 0 0 0 0 0 0 0 0 0 127 0" result="hardAlpha"/>
<feOffset dy="0.2"/>
<feGaussianBlur stdDeviation="0.375"/>
<feComposite in2="hardAlpha" operator="arithmetic" k2="-1" k3="1"/>
<feColorMatrix type="matrix" values="0 0 0 0 0.980392 0 0 0 0 0.54902 0 0 0 0 0.0941176 0 0 0 1 0"/>
<feBlend mode="normal" in2="effect1_innerShadow_461_1007" result="effect2_innerShadow_461_1007"/>
</filter>
<filter id="filter1_f_461_1007" x="9.55029" y="8.53955" width="3.45972" height="4.25513" filterUnits="userSpaceOnUse" color-interpolation-filters="sRGB">
<feFlood flood-opacity="0" result="BackgroundImageFix"/>
<feBlend mode="normal" in="SourceGraphic" in2="BackgroundImageFix" result="shape"/>
<feGaussianBlur stdDeviation="0.5" result="effect1_foregroundBlur_461_1007"/>
</filter>
<filter id="filter2_f_461_1007" x="10.6117" y="9.28684" width="1.65947" height="2.45549" filterUnits="userSpaceOnUse" color-interpolation-filters="sRGB">
<feFlood flood-opacity="0" result="BackgroundImageFix"/>
<feBlend mode="normal" in="SourceGraphic" in2="BackgroundImageFix" result="shape"/>
<feGaussianBlur stdDeviation="0.05" result="effect1_foregroundBlur_461_1007"/>
</filter>
<filter id="filter3_f_461_1007" x="10.6117" y="9.15" width="1.65947" height="2.45439" filterUnits="userSpaceOnUse" color-interpolation-filters="sRGB">
<feFlood flood-opacity="0" result="BackgroundImageFix"/>
<feBlend mode="normal" in="SourceGraphic" in2="BackgroundImageFix" result="shape"/>
<feGaussianBlur stdDeviation="0.05" result="effect1_foregroundBlur_461_1007"/>
</filter>
<filter id="filter4_f_461_1007" x="9.96079" y="11.9347" width="2.96074" height="1.29204" filterUnits="userSpaceOnUse" color-interpolation-filters="sRGB">
<feFlood flood-opacity="0" result="BackgroundImageFix"/>
<feBlend mode="normal" in="SourceGraphic" in2="BackgroundImageFix" result="shape"/>
<feGaussianBlur stdDeviation="0.05" result="effect1_foregroundBlur_461_1007"/>
</filter>
<filter id="filter5_f_461_1007" x="12.5448" y="9.10337" width="0.657764" height="0.586597" filterUnits="userSpaceOnUse" color-interpolation-filters="sRGB">
<feFlood flood-opacity="0" result="BackgroundImageFix"/>
<feBlend mode="normal" in="SourceGraphic" in2="BackgroundImageFix" result="shape"/>
<feGaussianBlur stdDeviation="0.05" result="effect1_foregroundBlur_461_1007"/>
</filter>
<filter id="filter6_f_461_1007" x="13.176" y="9.14009" width="0.782324" height="0.799658" filterUnits="userSpaceOnUse" color-interpolation-filters="sRGB">
<feFlood flood-opacity="0" result="BackgroundImageFix"/>
<feBlend mode="normal" in="SourceGraphic" in2="BackgroundImageFix" result="shape"/>
<feGaussianBlur stdDeviation="0.1" result="effect1_foregroundBlur_461_1007"/>
</filter>
<filter id="filter7_f_461_1007" x="9.72163" y="9.09053" width="0.857031" height="0.898779" filterUnits="userSpaceOnUse" color-interpolation-filters="sRGB">
<feFlood flood-opacity="0" result="BackgroundImageFix"/>
<feBlend mode="normal" in="SourceGraphic" in2="BackgroundImageFix" result="shape"/>
<feGaussianBlur stdDeviation="0.1" result="effect1_foregroundBlur_461_1007"/>
</filter>
<filter id="filter8_f_461_1007" x="9.15635" y="9.09678" width="0.755176" height="0.593066" filterUnits="userSpaceOnUse" color-interpolation-filters="sRGB">
<feFlood flood-opacity="0" result="BackgroundImageFix"/>
<feBlend mode="normal" in="SourceGraphic" in2="BackgroundImageFix" result="shape"/>
<feGaussianBlur stdDeviation="0.05" result="effect1_foregroundBlur_461_1007"/>
</filter>
<filter id="filter9_f_461_1007" x="6.69653" y="8.99963" width="1.14331" height="1.96118" filterUnits="userSpaceOnUse" color-interpolation-filters="sRGB">
<feFlood flood-opacity="0" result="BackgroundImageFix"/>
<feBlend mode="normal" in="SourceGraphic" in2="BackgroundImageFix" result="shape"/>
<feGaussianBlur stdDeviation="0.125" result="effect1_foregroundBlur_461_1007"/>
</filter>
<filter id="filter10_f_461_1007" x="15.0493" y="8.9873" width="1.23218" height="1.97986" filterUnits="userSpaceOnUse" color-interpolation-filters="sRGB">
<feFlood flood-opacity="0" result="BackgroundImageFix"/>
<feBlend mode="normal" in="SourceGraphic" in2="BackgroundImageFix" result="shape"/>
<feGaussianBlur stdDeviation="0.125" result="effect1_foregroundBlur_461_1007"/>
</filter>
<filter id="filter11_f_461_1007" x="10.6521" y="6.79541" width="6.43774" height="2.01465" filterUnits="userSpaceOnUse" color-interpolation-filters="sRGB">
<feFlood flood-opacity="0" result="BackgroundImageFix"/>
<feBlend mode="normal" in="SourceGraphic" in2="BackgroundImageFix" result="shape"/>
<feGaussianBlur stdDeviation="0.375" result="effect1_foregroundBlur_461_1007"/>
</filter>
<filter id="filter12_ii_461_1007" x="9.22627" y="1.48779" width="4.27402" height="6.05762" filterUnits="userSpaceOnUse" color-interpolation-filters="sRGB">
<feFlood flood-opacity="0" result="BackgroundImageFix"/>
<feBlend mode="normal" in="SourceGraphic" in2="BackgroundImageFix" result="shape"/>
<feColorMatrix in="SourceAlpha" type="matrix" values="0 0 0 0 0 0 0 0 0 0 0 0 0 0 0 0 0 0 127 0" result="hardAlpha"/>
<feOffset dx="0.2"/>
<feGaussianBlur stdDeviation="0.3"/>
<feComposite in2="hardAlpha" operator="arithmetic" k2="-1" k3="1"/>
<feColorMatrix type="matrix" values="0 0 0 0 0.768627 0 0 0 0 0.658824 0 0 0 0 0.321569 0 0 0 1 0"/>
<feBlend mode="normal" in2="shape" result="effect1_innerShadow_461_1007"/>
<feColorMatrix in="SourceAlpha" type="matrix" values="0 0 0 0 0 0 0 0 0 0 0 0 0 0 0 0 0 0 127 0" result="hardAlpha"/>
<feOffset dx="-0.2"/>
<feGaussianBlur stdDeviation="0.3"/>
<feComposite in2="hardAlpha" operator="arithmetic" k2="-1" k3="1"/>
<feColorMatrix type="matrix" values="0 0 0 0 1 0 0 0 0 0.92549 0 0 0 0 0.372549 0 0 0 1 0"/>
<feBlend mode="normal" in2="effect1_innerShadow_461_1007" result="effect2_innerShadow_461_1007"/>
</filter>
<filter id="filter13_f_461_1007" x="10.8608" y="6.61304" width="6.06372" height="2.37952" filterUnits="userSpaceOnUse" color-interpolation-filters="sRGB">
<feFlood flood-opacity="0" result="BackgroundImageFix"/>
<feBlend mode="normal" in="SourceGraphic" in2="BackgroundImageFix" result="shape"/>
<feGaussianBlur stdDeviation="0.5" result="effect1_foregroundBlur_461_1007"/>
</filter>
<linearGradient id="paint0_linear_461_1007" x1="7.50444" y1="8.74285" x2="6.85038" y2="8.74285" gradientUnits="userSpaceOnUse">
<stop stop-color="#D18235"/>
<stop offset="1" stop-color="#D2923F"/>
</linearGradient>
<linearGradient id="paint1_linear_461_1007" x1="15.3782" y1="8.77088" x2="15.8727" y2="8.77088" gradientUnits="userSpaceOnUse">
<stop stop-color="#C88129"/>
<stop offset="1" stop-color="#FFC036"/>
</linearGradient>
<radialGradient id="paint2_radial_461_1007" cx="0" cy="0" r="1" gradientUnits="userSpaceOnUse" gradientTransform="translate(11.5078 21.3713) rotate(-90) scale(6.91797 4.72404)">
<stop stop-color="#FF804B"/>
<stop offset="1" stop-color="#FF8B3C"/>
</radialGradient>
<radialGradient id="paint3_radial_461_1007" cx="0" cy="0" r="1" gradientUnits="userSpaceOnUse" gradientTransform="translate(13.4239 18.8111) rotate(180) scale(0.920899 8.98696)">
<stop stop-color="#FF8E3D"/>
<stop offset="1" stop-color="#FF8E3D" stop-opacity="0"/>
</radialGradient>
<radialGradient id="paint4_radial_461_1007" cx="0" cy="0" r="1" gradientUnits="userSpaceOnUse" gradientTransform="translate(9.86188 17.6554) rotate(90) scale(4.25066 1.16223)">
<stop stop-color="#FF7446"/>
<stop offset="1" stop-color="#FF6F4E"/>
</radialGradient>
<radialGradient id="paint5_radial_461_1007" cx="0" cy="0" r="1" gradientUnits="userSpaceOnUse" gradientTransform="translate(9.86188 18.8536) rotate(90) scale(3.27618 0.504196)">
<stop offset="0.35" stop-color="#FF7E58"/>
<stop offset="1" stop-color="#FF7E58" stop-opacity="0"/>
</radialGradient>
<radialGradient id="paint6_radial_461_1007" cx="0" cy="0" r="1" gradientUnits="userSpaceOnUse" gradientTransform="translate(10.2116 14.4013) rotate(116.713) scale(2.4294 3.96882)">
<stop offset="0.343" stop-color="#DA4708"/>
<stop offset="1" stop-color="#DC5314" stop-opacity="0"/>
</radialGradient>
<radialGradient id="paint7_radial_461_1007" cx="0" cy="0" r="1" gradientUnits="userSpaceOnUse" gradientTransform="translate(14.4051 14.5662) rotate(90) scale(6.7832 2.03684)">
<stop stop-color="#FF7523"/>
<stop offset="1" stop-color="#FB684A"/>
</radialGradient>
<radialGradient id="paint8_radial_461_1007" cx="0" cy="0" r="1" gradientUnits="userSpaceOnUse" gradientTransform="translate(13.1379 19.6823) scale(0.633729 7.94025)">
<stop offset="0.214" stop-color="#F25937"/>
<stop offset="1" stop-color="#F25937" stop-opacity="0"/>
</radialGradient>
<linearGradient id="paint9_linear_461_1007" x1="6.58234" y1="15.2368" x2="6.58234" y2="21.5115" gradientUnits="userSpaceOnUse">
<stop stop-color="#E6743E"/>
<stop offset="1" stop-color="#F46D40"/>
</linearGradient>
<radialGradient id="paint10_radial_461_1007" cx="0" cy="0" r="1" gradientUnits="userSpaceOnUse" gradientTransform="translate(8.92402 20.7604) rotate(-112.642) scale(6.58546 7.51223)">
<stop offset="0.684" stop-color="#E07241" stop-opacity="0"/>
<stop offset="0.951" stop-color="#CC6E42"/>
</radialGradient>
<radialGradient id="paint11_radial_461_1007" cx="0" cy="0" r="1" gradientUnits="userSpaceOnUse" gradientTransform="translate(5.99512 21.5122) scale(0.0938472 6.47345)">
<stop offset="0.245" stop-color="#DE521D"/>
<stop offset="1" stop-color="#DE521D" stop-opacity="0"/>
</radialGradient>
<radialGradient id="paint12_radial_461_1007" cx="0" cy="0" r="1" gradientUnits="userSpaceOnUse" gradientTransform="translate(17.0048 16.2028) rotate(90) scale(6.31294 1.44472)">
<stop offset="0.309" stop-color="#FF905A"/>
<stop offset="1" stop-color="#FF7955"/>
</radialGradient>
<radialGradient id="paint13_radial_461_1007" cx="0" cy="0" r="1" gradientUnits="userSpaceOnUse" gradientTransform="translate(17.0048 20.0797) rotate(90) scale(3.14453 0.200215)">
<stop offset="0.325" stop-color="#FE713A"/>
<stop offset="1" stop-color="#FE713A" stop-opacity="0"/>
</radialGradient>
<radialGradient id="paint14_radial_461_1007" cx="0" cy="0" r="1" gradientUnits="userSpaceOnUse" gradientTransform="translate(10.4862 22.1536) rotate(-108.091) scale(8.38393 13.4181)">
<stop offset="0.566" stop-color="#FDBF28" stop-opacity="0"/>
<stop offset="0.971" stop-color="#CD963A"/>
</radialGradient>
<linearGradient id="paint15_linear_461_1007" x1="15.118" y1="14.1846" x2="15.118" y2="21.5122" gradientUnits="userSpaceOnUse">
<stop stop-color="#FFDA42"/>
<stop offset="1" stop-color="#FFCF4C"/>
</linearGradient>
<radialGradient id="paint16_radial_461_1007" cx="0" cy="0" r="1" gradientUnits="userSpaceOnUse" gradientTransform="translate(13.8286 18.2275) rotate(-71.0295) scale(3.96641 6.1261)">
<stop offset="0.834" stop-color="#FFCE64" stop-opacity="0"/>
<stop offset="0.998" stop-color="#FFCE64"/>
</radialGradient>
<radialGradient id="paint17_radial_461_1007" cx="0" cy="0" r="1" gradientUnits="userSpaceOnUse" gradientTransform="translate(4.65095 20.7647) rotate(-75.6554) scale(5.42499 2.18524)">
<stop stop-color="#F37D42"/>
<stop offset="1" stop-color="#CE763C"/>
</radialGradient>
<linearGradient id="paint18_linear_461_1007" x1="6.08629" y1="21.5115" x2="5.09585" y2="21.3986" gradientUnits="userSpaceOnUse">
<stop offset="0.333" stop-color="#D15D2A"/>
<stop offset="1" stop-color="#D15D2A" stop-opacity="0"/>
</linearGradient>
<radialGradient id="paint19_radial_461_1007" cx="0" cy="0" r="1" gradientUnits="userSpaceOnUse" gradientTransform="translate(18.4553 21.5122) rotate(-99.8102) scale(5.93211 1.80898)">
<stop stop-color="#FF9C5E"/>
<stop offset="1" stop-color="#FF9457"/>
</radialGradient>
<radialGradient id="paint20_radial_461_1007" cx="0" cy="0" r="1" gradientUnits="userSpaceOnUse" gradientTransform="translate(17.0049 21.5122) rotate(-90) scale(5.98303 0.449319)">
<stop offset="0.353" stop-color="#EE6A13"/>
<stop offset="1" stop-color="#EE6A13" stop-opacity="0"/>
</radialGradient>
<radialGradient id="paint21_radial_461_1007" cx="0" cy="0" r="1" gradientUnits="userSpaceOnUse" gradientTransform="translate(11.5149 14.8694) rotate(90) scale(1.4375 2.852)">
<stop offset="0.133" stop-color="#F7803A"/>
<stop offset="0.88" stop-color="#FFA040"/>
</radialGradient>
<radialGradient id="paint22_radial_461_1007" cx="0" cy="0" r="1" gradientUnits="userSpaceOnUse" gradientTransform="translate(13.2226 15.0042) rotate(125.503) scale(2.16585 1.07435)">
<stop offset="0.239" stop-color="#FFB32D"/>
<stop offset="1" stop-color="#FFB32D" stop-opacity="0"/>
</radialGradient>
<radialGradient id="paint23_radial_461_1007" cx="0" cy="0" r="1" gradientUnits="userSpaceOnUse" gradientTransform="translate(11.9979 14.6667) rotate(151.437) scale(2.16095 3.75999)">
<stop offset="0.706" stop-color="#F78B29" stop-opacity="0"/>
<stop offset="1" stop-color="#D87934"/>
</radialGradient>
<radialGradient id="paint24_radial_461_1007" cx="0" cy="0" r="1" gradientUnits="userSpaceOnUse" gradientTransform="translate(15.7551 10.9124) rotate(103.169) scale(2.97714 3.53661)">
<stop offset="0.043" stop-color="#FFC135"/>
<stop offset="1" stop-color="#E26839"/>
</radialGradient>
<radialGradient id="paint25_radial_461_1007" cx="0" cy="0" r="1" gradientUnits="userSpaceOnUse" gradientTransform="translate(15.1749 11.1212) rotate(53.9018) scale(0.387098 0.328844)">
<stop stop-color="#E18C2A"/>
<stop offset="1" stop-color="#E18C2A" stop-opacity="0"/>
</radialGradient>
<radialGradient id="paint26_radial_461_1007" cx="0" cy="0" r="1" gradientUnits="userSpaceOnUse" gradientTransform="translate(7.12732 11.0036) rotate(71.234) scale(3.22188 1.46449)">
<stop stop-color="#D57A26"/>
<stop offset="1" stop-color="#D06A3C"/>
</radialGradient>
<radialGradient id="paint27_radial_461_1007" cx="0" cy="0" r="1" gradientUnits="userSpaceOnUse" gradientTransform="translate(7.64227 10.9968) rotate(72.2908) scale(0.814004 0.714048)">
<stop offset="0.263" stop-color="#BE691E"/>
<stop offset="0.977" stop-color="#BE691E" stop-opacity="0"/>
</radialGradient>
<radialGradient id="paint28_radial_461_1007" cx="0" cy="0" r="1" gradientUnits="userSpaceOnUse" gradientTransform="translate(13.6245 10.1803) rotate(180) scale(4.26552 5.67708)">
<stop offset="0.121" stop-color="#FFE233"/>
<stop offset="1" stop-color="#F5A02B"/>
</radialGradient>
<radialGradient id="paint29_radial_461_1007" cx="0" cy="0" r="1" gradientUnits="userSpaceOnUse" gradientTransform="translate(11.2908 15.1067) rotate(-90) scale(2.63258 10.241)">
<stop offset="0.082" stop-color="#E27426"/>
<stop offset="1" stop-color="#FFA041" stop-opacity="0"/>
</radialGradient>
<radialGradient id="paint30_radial_461_1007" cx="0" cy="0" r="1" gradientUnits="userSpaceOnUse" gradientTransform="translate(15.4509 10.0007) rotate(93.7745) scale(4.75474 1.74803)">
<stop offset="0.39" stop-color="#FFD930"/>
<stop offset="1" stop-color="#FFD930" stop-opacity="0"/>
</radialGradient>
<radialGradient id="paint31_radial_461_1007" cx="0" cy="0" r="1" gradientUnits="userSpaceOnUse" gradientTransform="translate(9.81516 9.2625) rotate(-90) scale(1.09932 1.32352)">
<stop offset="0.276" stop-color="#F59632"/>
<stop offset="1" stop-color="#F59632" stop-opacity="0"/>
</radialGradient>
<radialGradient id="paint32_radial_461_1007" cx="0" cy="0" r="1" gradientUnits="userSpaceOnUse" gradientTransform="translate(13.3758 8.94266) rotate(-90) scale(1.19369 1.54826)">
<stop offset="0.178" stop-color="#FFBE3A"/>
<stop offset="1" stop-color="#FFBE3A" stop-opacity="0"/>
</radialGradient>
<radialGradient id="paint33_radial_461_1007" cx="0" cy="0" r="1" gradientUnits="userSpaceOnUse" gradientTransform="translate(11.2908 8.79388) rotate(90) scale(1.01074 8.06351)">
<stop stop-color="#F38E22"/>
<stop offset="1" stop-color="#F38E22" stop-opacity="0"/>
</radialGradient>
<radialGradient id="paint34_radial_461_1007" cx="0" cy="0" r="1" gradientUnits="userSpaceOnUse" gradientTransform="translate(11.4783 8.99585) rotate(90) scale(6.24414 10.4396)">
<stop offset="0.867" stop-color="#F77A61" stop-opacity="0"/>
<stop offset="1" stop-color="#F77A61"/>
</radialGradient>
<linearGradient id="paint35_linear_461_1007" x1="10.6073" y1="10.7036" x2="11.4425" y2="10.7496" gradientUnits="userSpaceOnUse">
<stop stop-color="#F49F22"/>
<stop offset="1" stop-color="#F49F22" stop-opacity="0"/>
</linearGradient>
<radialGradient id="paint36_radial_461_1007" cx="0" cy="0" r="1" gradientUnits="userSpaceOnUse" gradientTransform="translate(12.0431 11.1062) rotate(-99.998) scale(2.48599 0.971074)">
<stop offset="0.139" stop-color="#FFDC43"/>
<stop offset="1" stop-color="#FFDC43" stop-opacity="0"/>
</radialGradient>
<linearGradient id="paint37_linear_461_1007" x1="11.441" y1="11.1348" x2="11.441" y2="11.7968" gradientUnits="userSpaceOnUse">
<stop stop-color="#E88830" stop-opacity="0"/>
<stop offset="0.845" stop-color="#E88830"/>
</linearGradient>
<linearGradient id="paint38_linear_461_1007" x1="11.441" y1="9.24963" x2="11.6114" y2="9.9842" gradientUnits="userSpaceOnUse">
<stop stop-color="#F6A328"/>
<stop offset="1" stop-color="#F6A328" stop-opacity="0"/>
</linearGradient>
<radialGradient id="paint39_radial_461_1007" cx="0" cy="0" r="1" gradientUnits="userSpaceOnUse" gradientTransform="translate(10.5656 12.7376) rotate(-60.7321) scale(0.552116 1.60669)">
<stop stop-color="#FFB534"/>
<stop offset="1" stop-color="#FFB534" stop-opacity="0"/>
</radialGradient>
<radialGradient id="paint40_radial_461_1007" cx="0" cy="0" r="1" gradientUnits="userSpaceOnUse" gradientTransform="translate(11.4409 12.9325) rotate(-90) scale(0.560395 2.2546)">
<stop stop-color="#89014E"/>
<stop offset="1" stop-color="#87004D"/>
</radialGradient>
<radialGradient id="paint41_radial_461_1007" cx="0" cy="0" r="1" gradientUnits="userSpaceOnUse" gradientTransform="translate(13.1373 9.97476) rotate(-90) scale(0.876846)">
<stop offset="0.687" stop-color="#805250"/>
<stop offset="1" stop-color="#604038"/>
</radialGradient>
<radialGradient id="paint42_radial_461_1007" cx="0" cy="0" r="1" gradientUnits="userSpaceOnUse" gradientTransform="translate(12.9617 9.53369) rotate(-127.812) scale(0.294788 0.405856)">
<stop offset="0.766" stop-color="#FFE6E2" stop-opacity="0"/>
<stop offset="0.966" stop-color="#FFE6E2"/>
</radialGradient>
<linearGradient id="paint43_linear_461_1007" x1="13.744" y1="9.51043" x2="13.4989" y2="9.66065" gradientUnits="userSpaceOnUse">
<stop stop-color="#B4948D"/>
<stop offset="1" stop-color="#B4948D" stop-opacity="0"/>
</linearGradient>
<radialGradient id="paint44_radial_461_1007" cx="0" cy="0" r="1" gradientUnits="userSpaceOnUse" gradientTransform="translate(9.74412 9.97404) rotate(-90) scale(0.87689)">
<stop offset="0.687" stop-color="#805250"/>
<stop offset="1" stop-color="#604038"/>
</radialGradient>
<linearGradient id="paint45_linear_461_1007" x1="10.3241" y1="9.51046" x2="10.0798" y2="9.6614" gradientUnits="userSpaceOnUse">
<stop stop-color="#B4948D"/>
<stop offset="1" stop-color="#B4948D" stop-opacity="0"/>
</linearGradient>
<radialGradient id="paint46_radial_461_1007" cx="0" cy="0" r="1" gradientUnits="userSpaceOnUse" gradientTransform="translate(9.63909 9.61496) rotate(-118.811) scale(0.385075 0.462874)">
<stop offset="0.766" stop-color="#FFE6E2" stop-opacity="0"/>
<stop offset="0.966" stop-color="#FFE6E2"/>
</radialGradient>
<linearGradient id="paint47_linear_461_1007" x1="16.4456" y1="9.53137" x2="15.5077" y2="11.2233" gradientUnits="userSpaceOnUse">
<stop stop-color="#FFE343"/>
<stop offset="1" stop-color="#FFC136"/>
</linearGradient>
<radialGradient id="paint48_radial_461_1007" cx="0" cy="0" r="1" gradientUnits="userSpaceOnUse" gradientTransform="translate(15.0318 9.47891) rotate(74.3476) scale(1.81139 1.7282)">
<stop offset="0.856" stop-color="#E1943D" stop-opacity="0"/>
<stop offset="1" stop-color="#E08F2E"/>
</radialGradient>
<radialGradient id="paint49_radial_461_1007" cx="0" cy="0" r="1" gradientUnits="userSpaceOnUse" gradientTransform="translate(15.3122 9.90225) rotate(-53.9201) scale(1.04008 0.871806)">
<stop offset="0.664" stop-color="#FFBD22"/>
<stop offset="1" stop-color="#FFBD22" stop-opacity="0"/>
</radialGradient>
<linearGradient id="paint50_linear_461_1007" x1="6.89263" y1="10.0783" x2="8.02682" y2="9.97914" gradientUnits="userSpaceOnUse">
<stop stop-color="#E58F2C"/>
<stop offset="1" stop-color="#D9851D"/>
</linearGradient>
<radialGradient id="paint51_radial_461_1007" cx="0" cy="0" r="1" gradientUnits="userSpaceOnUse" gradientTransform="translate(7.34904 9.6097) rotate(101.248) scale(1.64578 1.61795)">
<stop offset="0.775" stop-color="#C77937" stop-opacity="0"/>
<stop offset="1" stop-color="#C77937"/>
</radialGradient>
<radialGradient id="paint52_radial_461_1007" cx="0" cy="0" r="1" gradientUnits="userSpaceOnUse" gradientTransform="translate(14.076 4.88531) rotate(90) scale(3.2793 2.07047)">
<stop stop-color="#FFEE61"/>
<stop offset="1" stop-color="#FFDD44"/>
</radialGradient>
<radialGradient id="paint53_radial_461_1007" cx="0" cy="0" r="1" gradientUnits="userSpaceOnUse" gradientTransform="translate(8.50572 7.08684) rotate(-90) scale(11.5 4.16713)">
<stop offset="0.301" stop-color="#E9B840"/>
<stop offset="1" stop-color="#E9B840" stop-opacity="0"/>
</radialGradient>
<radialGradient id="paint54_radial_461_1007" cx="0" cy="0" r="1" gradientUnits="userSpaceOnUse" gradientTransform="translate(12.3913 7.40094) rotate(-80.901) scale(5.82328 11.1144)">
<stop offset="0.814" stop-color="#EECD67" stop-opacity="0"/>
<stop offset="0.946" stop-color="#EECD67"/>
</radialGradient>
<radialGradient id="paint55_radial_461_1007" cx="0" cy="0" r="1" gradientUnits="userSpaceOnUse" gradientTransform="translate(9.471 4.64956) rotate(90) scale(4.94141 0.424328)">
<stop offset="0.305" stop-color="#D7A439"/>
<stop offset="1" stop-color="#E1B037" stop-opacity="0"/>
</radialGradient>
<radialGradient id="paint56_radial_461_1007" cx="0" cy="0" r="1" gradientUnits="userSpaceOnUse" gradientTransform="translate(9.56084 1.94275) rotate(84.92) scale(3.04418 1.21609)">
<stop offset="0.103" stop-color="#B59741"/>
<stop offset="1" stop-color="#CBA731" stop-opacity="0"/>
</radialGradient>
<radialGradient id="paint57_radial_461_1007" cx="0" cy="0" r="1" gradientUnits="userSpaceOnUse" gradientTransform="translate(12.0319 6.974) rotate(-129.472) scale(5.93581 7.29639)">
<stop offset="0.781" stop-color="#C3A852" stop-opacity="0"/>
<stop offset="1" stop-color="#C3A852"/>
</radialGradient>
<linearGradient id="paint58_linear_461_1007" x1="7.02294" y1="6.6369" x2="7.60728" y2="6.6369" gradientUnits="userSpaceOnUse">
<stop stop-color="#CDAC54"/>
<stop offset="1" stop-color="#CDAC54" stop-opacity="0"/>
</linearGradient>
<radialGradient id="paint59_radial_461_1007" cx="0" cy="0" r="1" gradientUnits="userSpaceOnUse" gradientTransform="translate(7.87681 7.25503) rotate(-90) scale(0.426758 4.1665)">
<stop offset="0.263" stop-color="#C8A03F"/>
<stop offset="1" stop-color="#C8A03F" stop-opacity="0"/>
</radialGradient>
<linearGradient id="paint60_linear_461_1007" x1="11.3633" y1="1.48779" x2="11.3633" y2="7.54542" gradientUnits="userSpaceOnUse">
<stop stop-color="#F9CD2E"/>
<stop offset="1" stop-color="#FFCA3D"/>
</linearGradient>
<linearGradient id="paint61_linear_461_1007" x1="11.3633" y1="1.48779" x2="11.3633" y2="3.35798" gradientUnits="userSpaceOnUse">
<stop stop-color="#E7C44C"/>
<stop offset="1" stop-color="#E7C44C" stop-opacity="0"/>
</linearGradient>
<radialGradient id="paint62_radial_461_1007" cx="0" cy="0" r="1" gradientUnits="userSpaceOnUse" gradientTransform="translate(9.67352 7.08686) rotate(-90) scale(6.51367 0.71875)">
<stop stop-color="#E3B438"/>
<stop offset="1" stop-color="#E3B438" stop-opacity="0"/>
</radialGradient>
<radialGradient id="paint63_radial_461_1007" cx="0" cy="0" r="1" gradientUnits="userSpaceOnUse" gradientTransform="translate(13.1774 7.13142) rotate(-90) scale(6.31152 1.21289)">
<stop stop-color="#FFE550"/>
<stop offset="1" stop-color="#FFE550" stop-opacity="0"/>
</radialGradient>
<linearGradient id="paint64_linear_461_1007" x1="15.6587" y1="8.08083" x2="3.70733" y2="8.08083" gradientUnits="userSpaceOnUse">
<stop stop-color="#FFE24A"/>
<stop offset="1" stop-color="#F0BC33"/>
</linearGradient>
<linearGradient id="paint65_linear_461_1007" x1="11.2032" y1="7.07386" x2="11.2032" y2="7.29883" gradientUnits="userSpaceOnUse">
<stop offset="0.027" stop-color="#FFD131"/>
<stop offset="1" stop-color="#FFD131" stop-opacity="0"/>
</linearGradient>
<linearGradient id="paint66_linear_461_1007" x1="11.863" y1="8.7313" x2="11.863" y2="7.83071" gradientUnits="userSpaceOnUse">
<stop stop-color="#E1926F"/>
<stop offset="1" stop-color="#F9B14D" stop-opacity="0"/>
</linearGradient>
<radialGradient id="paint67_radial_461_1007" cx="0" cy="0" r="1" gradientUnits="userSpaceOnUse" gradientTransform="translate(8.40723 6.42196) rotate(75.7529) scale(1.5278 9.1361)">
<stop offset="0.173" stop-color="#C4A966"/>
<stop offset="1" stop-color="#DFB83E" stop-opacity="0"/>
</radialGradient>
</defs>
</svg>
