<svg width="23" height="23" viewBox="0 0 23 23" fill="none" xmlns="http://www.w3.org/2000/svg">
<path d="M3.59375 15.0018C3.59375 15.0593 3.60094 15.088 3.61531 15.088H5.72844C5.74281 15.088 5.75 15.0593 5.75 15.0018V3.58801H3.59375V15.0018Z" fill="url(#paint0_linear_461_957)"/>
<path d="M3.59375 15.0018C3.59375 15.0593 3.60094 15.088 3.61531 15.088H5.72844C5.74281 15.088 5.75 15.0593 5.75 15.0018V3.58801H3.59375V15.0018Z" fill="url(#paint1_linear_461_957)"/>
<path d="M3.59375 15.0018C3.59375 15.0593 3.60094 15.088 3.61531 15.088H5.72844C5.74281 15.088 5.75 15.0593 5.75 15.0018V3.58801H3.59375V15.0018Z" fill="url(#paint2_linear_461_957)"/>
<path d="M8.625 15.0018C8.625 15.0593 8.63219 15.088 8.64656 15.088H10.7597C10.7741 15.088 10.7812 15.0593 10.7812 15.0018V3.58801H8.625V15.0018Z" fill="url(#paint3_linear_461_957)"/>
<path d="M8.625 15.0018C8.625 15.0593 8.63219 15.088 8.64656 15.088H10.7597C10.7741 15.088 10.7812 15.0593 10.7812 15.0018V3.58801H8.625V15.0018Z" fill="url(#paint4_linear_461_957)"/>
<path d="M5.75 10.0568H3.59375V12.213H5.75V10.0568Z" fill="url(#paint5_linear_461_957)"/>
<path d="M5.75 5.74426H3.59375V7.90051H5.75V5.74426Z" fill="url(#paint6_linear_461_957)"/>
<path d="M5.75 1.79833C5.75 1.59708 5.58469 1.43176 5.38344 1.43176H3.96031C3.75906 1.43176 3.59375 1.59708 3.59375 1.79833V3.58801H5.75V1.79833Z" fill="url(#paint7_linear_461_957)"/>
<path d="M10.7812 10.0568H8.625V12.213H10.7812V10.0568Z" fill="url(#paint8_linear_461_957)"/>
<path d="M10.7812 5.74426H8.625V7.90051H10.7812V5.74426Z" fill="url(#paint9_linear_461_957)"/>
<path d="M10.7812 1.79833C10.7812 1.59708 10.6159 1.43176 10.4147 1.43176H8.99156C8.79031 1.43176 8.625 1.59708 8.625 1.79833V3.58801H10.7812V1.79833Z" fill="url(#paint10_linear_461_957)"/>
<g opacity="0.68">
<path d="M21.5625 21.5568H12.9375V9.43145C12.9375 8.98583 13.2976 8.61926 13.7518 8.61926H20.7482C21.1952 8.61926 21.5625 8.97864 21.5625 9.43145V21.5568Z" fill="url(#paint11_linear_461_957)"/>
<path d="M21.5625 21.5568H12.9375V9.43145C12.9375 8.98583 13.2976 8.61926 13.7518 8.61926H20.7482C21.1952 8.61926 21.5625 8.97864 21.5625 9.43145V21.5568Z" fill="url(#paint12_linear_461_957)"/>
<path d="M21.5625 21.5568H12.9375V9.43145C12.9375 8.98583 13.2976 8.61926 13.7518 8.61926H20.7482C21.1952 8.61926 21.5625 8.97864 21.5625 9.43145V21.5568Z" fill="url(#paint13_linear_461_957)"/>
<path d="M21.5625 21.5568H12.9375V9.43145C12.9375 8.98583 13.2976 8.61926 13.7518 8.61926H20.7482C21.1952 8.61926 21.5625 8.97864 21.5625 9.43145V21.5568Z" fill="url(#paint14_linear_461_957)"/>
<path d="M21.5625 21.5568H12.9375V9.43145C12.9375 8.98583 13.2976 8.61926 13.7518 8.61926H20.7482C21.1952 8.61926 21.5625 8.97864 21.5625 9.43145V21.5568Z" fill="url(#paint15_radial_461_957)"/>
<path d="M21.5625 21.5568H12.9375V9.43145C12.9375 8.98583 13.2976 8.61926 13.7518 8.61926H20.7482C21.1952 8.61926 21.5625 8.97864 21.5625 9.43145V21.5568Z" fill="url(#paint16_linear_461_957)"/>
</g>
<g filter="url(#filter0_ii_461_957)">
<path d="M1.58844 15.0233L6.79578 12.4143C6.97547 12.328 7.18391 12.4574 7.18391 12.6514V14.6568C7.18391 14.858 7.39234 14.9874 7.57203 14.8939L12.9375 12.213V21.5568H1.4375V15.2533C1.4375 15.1599 1.495 15.0665 1.58844 15.0233Z" fill="url(#paint17_linear_461_957)"/>
<path d="M1.58844 15.0233L6.79578 12.4143C6.97547 12.328 7.18391 12.4574 7.18391 12.6514V14.6568C7.18391 14.858 7.39234 14.9874 7.57203 14.8939L12.9375 12.213V21.5568H1.4375V15.2533C1.4375 15.1599 1.495 15.0665 1.58844 15.0233Z" fill="url(#paint18_linear_461_957)"/>
<path d="M1.58844 15.0233L6.79578 12.4143C6.97547 12.328 7.18391 12.4574 7.18391 12.6514V14.6568C7.18391 14.858 7.39234 14.9874 7.57203 14.8939L12.9375 12.213V21.5568H1.4375V15.2533C1.4375 15.1599 1.495 15.0665 1.58844 15.0233Z" fill="url(#paint19_linear_461_957)"/>
</g>
<path d="M1.58844 15.0233L6.79578 12.4143C6.97547 12.328 7.18391 12.4574 7.18391 12.6514V14.6568C7.18391 14.858 7.39234 14.9874 7.57203 14.8939L12.9375 12.213V21.5568H1.4375V15.2533C1.4375 15.1599 1.495 15.0665 1.58844 15.0233Z" fill="url(#paint20_radial_461_957)"/>
<path d="M1.58844 15.0233L6.79578 12.4143C6.97547 12.328 7.18391 12.4574 7.18391 12.6514V14.6568C7.18391 14.858 7.39234 14.9874 7.57203 14.8939L12.9375 12.213V21.5568H1.4375V15.2533C1.4375 15.1599 1.495 15.0665 1.58844 15.0233Z" fill="url(#paint21_linear_461_957)"/>
<g filter="url(#filter1_ii_461_957)">
<path d="M6.46875 21.5568H2.875V19.6736C2.875 19.5227 2.99719 19.4005 3.14813 19.4005H6.19562C6.34656 19.4005 6.46875 19.5227 6.46875 19.6736V21.5568Z" fill="url(#paint22_linear_461_957)"/>
</g>
<g filter="url(#filter2_ii_461_957)">
<path d="M11.5 21.5568H7.90625V19.6736C7.90625 19.5227 8.02844 19.4005 8.17938 19.4005H11.2269C11.3778 19.4005 11.5 19.5227 11.5 19.6736V21.5568Z" fill="url(#paint23_linear_461_957)"/>
</g>
<g filter="url(#filter3_ii_461_957)">
<path d="M19.4062 21.5568H15.0938V18.9427C15.0938 18.7989 15.2159 18.6818 15.3676 18.6818H19.1324C19.2833 18.6818 19.4062 18.7982 19.4062 18.9427V21.5568Z" fill="url(#paint24_linear_461_957)"/>
</g>
<g filter="url(#filter4_ii_461_957)">
<path d="M15.4618 10.0682H14.7488C14.5503 10.0682 14.3894 10.2291 14.3894 10.4276V11.1406C14.3894 11.3391 14.5503 11.5 14.7488 11.5H15.4618C15.6603 11.5 15.8212 11.3391 15.8212 11.1406V10.4276C15.8212 10.2291 15.6603 10.0682 15.4618 10.0682Z" fill="url(#paint25_linear_461_957)"/>
</g>
<g filter="url(#filter5_ii_461_957)">
<path d="M17.6066 10.0682H16.8936C16.6951 10.0682 16.5342 10.2291 16.5342 10.4276V11.1406C16.5342 11.3391 16.6951 11.5 16.8936 11.5H17.6066C17.805 11.5 17.9659 11.3391 17.9659 11.1406V10.4276C17.9659 10.2291 17.805 10.0682 17.6066 10.0682Z" fill="url(#paint26_linear_461_957)"/>
</g>
<g filter="url(#filter6_ii_461_957)">
<path d="M19.7513 10.0682H19.0383C18.8399 10.0682 18.679 10.2291 18.679 10.4276V11.1406C18.679 11.3391 18.8399 11.5 19.0383 11.5H19.7513C19.9498 11.5 20.1107 11.3391 20.1107 11.1406V10.4276C20.1107 10.2291 19.9498 10.0682 19.7513 10.0682Z" fill="url(#paint27_linear_461_957)"/>
</g>
<g filter="url(#filter7_ii_461_957)">
<path d="M15.4618 12.2245H14.7488C14.5503 12.2245 14.3894 12.3854 14.3894 12.5839V13.2969C14.3894 13.4953 14.5503 13.6562 14.7488 13.6562H15.4618C15.6603 13.6562 15.8212 13.4953 15.8212 13.2969V12.5839C15.8212 12.3854 15.6603 12.2245 15.4618 12.2245Z" fill="url(#paint28_linear_461_957)"/>
</g>
<g filter="url(#filter8_ii_461_957)">
<path d="M17.6066 12.2245H16.8936C16.6951 12.2245 16.5342 12.3854 16.5342 12.5839V13.2969C16.5342 13.4953 16.6951 13.6562 16.8936 13.6562H17.6066C17.805 13.6562 17.9659 13.4953 17.9659 13.2969V12.5839C17.9659 12.3854 17.805 12.2245 17.6066 12.2245Z" fill="url(#paint29_linear_461_957)"/>
</g>
<g filter="url(#filter9_ii_461_957)">
<path d="M19.7513 12.2245H19.0383C18.8399 12.2245 18.679 12.3854 18.679 12.5839V13.2969C18.679 13.4953 18.8399 13.6562 19.0383 13.6562H19.7513C19.9498 13.6562 20.1107 13.4953 20.1107 13.2969V12.5839C20.1107 12.3854 19.9498 12.2245 19.7513 12.2245Z" fill="url(#paint30_linear_461_957)"/>
</g>
<g filter="url(#filter10_ii_461_957)">
<path d="M15.4618 14.3807H14.7488C14.5503 14.3807 14.3894 14.5416 14.3894 14.7401V15.4531C14.3894 15.6516 14.5503 15.8125 14.7488 15.8125H15.4618C15.6603 15.8125 15.8212 15.6516 15.8212 15.4531V14.7401C15.8212 14.5416 15.6603 14.3807 15.4618 14.3807Z" fill="url(#paint31_linear_461_957)"/>
</g>
<g filter="url(#filter11_ii_461_957)">
<path d="M17.6066 14.3807H16.8936C16.6951 14.3807 16.5342 14.5416 16.5342 14.7401V15.4531C16.5342 15.6516 16.6951 15.8125 16.8936 15.8125H17.6066C17.805 15.8125 17.9659 15.6516 17.9659 15.4531V14.7401C17.9659 14.5416 17.805 14.3807 17.6066 14.3807Z" fill="url(#paint32_linear_461_957)"/>
</g>
<g filter="url(#filter12_ii_461_957)">
<path d="M19.7513 14.3807H19.0383C18.8399 14.3807 18.679 14.5416 18.679 14.7401V15.4531C18.679 15.6516 18.8399 15.8125 19.0383 15.8125H19.7513C19.9498 15.8125 20.1107 15.6516 20.1107 15.4531V14.7401C20.1107 14.5416 19.9498 14.3807 19.7513 14.3807Z" fill="url(#paint33_linear_461_957)"/>
</g>
<defs>
<filter id="filter0_ii_461_957" x="1.3125" y="12.213" width="11.625" height="9.46875" filterUnits="userSpaceOnUse" color-interpolation-filters="sRGB">
<feFlood flood-opacity="0" result="BackgroundImageFix"/>
<feBlend mode="normal" in="SourceGraphic" in2="BackgroundImageFix" result="shape"/>
<feColorMatrix in="SourceAlpha" type="matrix" values="0 0 0 0 0 0 0 0 0 0 0 0 0 0 0 0 0 0 127 0" result="hardAlpha"/>
<feOffset dy="0.125"/>
<feGaussianBlur stdDeviation="0.125"/>
<feComposite in2="hardAlpha" operator="arithmetic" k2="-1" k3="1"/>
<feColorMatrix type="matrix" values="0 0 0 0 0.54902 0 0 0 0 0.505882 0 0 0 0 0.521569 0 0 0 1 0"/>
<feBlend mode="normal" in2="shape" result="effect1_innerShadow_461_957"/>
<feColorMatrix in="SourceAlpha" type="matrix" values="0 0 0 0 0 0 0 0 0 0 0 0 0 0 0 0 0 0 127 0" result="hardAlpha"/>
<feOffset dx="-0.125"/>
<feGaussianBlur stdDeviation="0.0625"/>
<feComposite in2="hardAlpha" operator="arithmetic" k2="-1" k3="1"/>
<feColorMatrix type="matrix" values="0 0 0 0 0.788235 0 0 0 0 0.772549 0 0 0 0 0.796078 0 0 0 1 0"/>
<feBlend mode="normal" in2="effect1_innerShadow_461_957" result="effect2_innerShadow_461_957"/>
</filter>
<filter id="filter1_ii_461_957" x="2.75" y="19.4005" width="3.79375" height="2.23125" filterUnits="userSpaceOnUse" color-interpolation-filters="sRGB">
<feFlood flood-opacity="0" result="BackgroundImageFix"/>
<feBlend mode="normal" in="SourceGraphic" in2="BackgroundImageFix" result="shape"/>
<feColorMatrix in="SourceAlpha" type="matrix" values="0 0 0 0 0 0 0 0 0 0 0 0 0 0 0 0 0 0 127 0" result="hardAlpha"/>
<feOffset dx="0.1"/>
<feGaussianBlur stdDeviation="0.0375"/>
<feComposite in2="hardAlpha" operator="arithmetic" k2="-1" k3="1"/>
<feColorMatrix type="matrix" values="0 0 0 0 0.396078 0 0 0 0 0.313726 0 0 0 0 0.482353 0 0 0 1 0"/>
<feBlend mode="normal" in2="shape" result="effect1_innerShadow_461_957"/>
<feColorMatrix in="SourceAlpha" type="matrix" values="0 0 0 0 0 0 0 0 0 0 0 0 0 0 0 0 0 0 127 0" result="hardAlpha"/>
<feOffset dx="-0.125" dy="0.075"/>
<feGaussianBlur stdDeviation="0.075"/>
<feComposite in2="hardAlpha" operator="arithmetic" k2="-1" k3="1"/>
<feColorMatrix type="matrix" values="0 0 0 0 0.137255 0 0 0 0 0.0862745 0 0 0 0 0.176471 0 0 0 1 0"/>
<feBlend mode="normal" in2="effect1_innerShadow_461_957" result="effect2_innerShadow_461_957"/>
</filter>
<filter id="filter2_ii_461_957" x="7.78125" y="19.4005" width="3.79375" height="2.23125" filterUnits="userSpaceOnUse" color-interpolation-filters="sRGB">
<feFlood flood-opacity="0" result="BackgroundImageFix"/>
<feBlend mode="normal" in="SourceGraphic" in2="BackgroundImageFix" result="shape"/>
<feColorMatrix in="SourceAlpha" type="matrix" values="0 0 0 0 0 0 0 0 0 0 0 0 0 0 0 0 0 0 127 0" result="hardAlpha"/>
<feOffset dx="0.1"/>
<feGaussianBlur stdDeviation="0.0375"/>
<feComposite in2="hardAlpha" operator="arithmetic" k2="-1" k3="1"/>
<feColorMatrix type="matrix" values="0 0 0 0 0.396078 0 0 0 0 0.313726 0 0 0 0 0.482353 0 0 0 1 0"/>
<feBlend mode="normal" in2="shape" result="effect1_innerShadow_461_957"/>
<feColorMatrix in="SourceAlpha" type="matrix" values="0 0 0 0 0 0 0 0 0 0 0 0 0 0 0 0 0 0 127 0" result="hardAlpha"/>
<feOffset dx="-0.125" dy="0.075"/>
<feGaussianBlur stdDeviation="0.075"/>
<feComposite in2="hardAlpha" operator="arithmetic" k2="-1" k3="1"/>
<feColorMatrix type="matrix" values="0 0 0 0 0.137255 0 0 0 0 0.0862745 0 0 0 0 0.176471 0 0 0 1 0"/>
<feBlend mode="normal" in2="effect1_innerShadow_461_957" result="effect2_innerShadow_461_957"/>
</filter>
<filter id="filter3_ii_461_957" x="14.9688" y="18.6818" width="4.5125" height="2.95" filterUnits="userSpaceOnUse" color-interpolation-filters="sRGB">
<feFlood flood-opacity="0" result="BackgroundImageFix"/>
<feBlend mode="normal" in="SourceGraphic" in2="BackgroundImageFix" result="shape"/>
<feColorMatrix in="SourceAlpha" type="matrix" values="0 0 0 0 0 0 0 0 0 0 0 0 0 0 0 0 0 0 127 0" result="hardAlpha"/>
<feOffset dx="0.1"/>
<feGaussianBlur stdDeviation="0.0375"/>
<feComposite in2="hardAlpha" operator="arithmetic" k2="-1" k3="1"/>
<feColorMatrix type="matrix" values="0 0 0 0 0.396078 0 0 0 0 0.313726 0 0 0 0 0.482353 0 0 0 1 0"/>
<feBlend mode="normal" in2="shape" result="effect1_innerShadow_461_957"/>
<feColorMatrix in="SourceAlpha" type="matrix" values="0 0 0 0 0 0 0 0 0 0 0 0 0 0 0 0 0 0 127 0" result="hardAlpha"/>
<feOffset dx="-0.125" dy="0.075"/>
<feGaussianBlur stdDeviation="0.075"/>
<feComposite in2="hardAlpha" operator="arithmetic" k2="-1" k3="1"/>
<feColorMatrix type="matrix" values="0 0 0 0 0.137255 0 0 0 0 0.0862745 0 0 0 0 0.176471 0 0 0 1 0"/>
<feBlend mode="normal" in2="effect1_innerShadow_461_957" result="effect2_innerShadow_461_957"/>
</filter>
<filter id="filter4_ii_461_957" x="14.2644" y="10.0682" width="1.65664" height="1.55676" filterUnits="userSpaceOnUse" color-interpolation-filters="sRGB">
<feFlood flood-opacity="0" result="BackgroundImageFix"/>
<feBlend mode="normal" in="SourceGraphic" in2="BackgroundImageFix" result="shape"/>
<feColorMatrix in="SourceAlpha" type="matrix" values="0 0 0 0 0 0 0 0 0 0 0 0 0 0 0 0 0 0 127 0" result="hardAlpha"/>
<feOffset dx="0.1"/>
<feGaussianBlur stdDeviation="0.1"/>
<feComposite in2="hardAlpha" operator="arithmetic" k2="-1" k3="1"/>
<feColorMatrix type="matrix" values="0 0 0 0 0.380392 0 0 0 0 1 0 0 0 0 1 0 0 0 1 0"/>
<feBlend mode="normal" in2="shape" result="effect1_innerShadow_461_957"/>
<feColorMatrix in="SourceAlpha" type="matrix" values="0 0 0 0 0 0 0 0 0 0 0 0 0 0 0 0 0 0 127 0" result="hardAlpha"/>
<feOffset dx="-0.125" dy="0.125"/>
<feGaussianBlur stdDeviation="0.1"/>
<feComposite in2="hardAlpha" operator="arithmetic" k2="-1" k3="1"/>
<feColorMatrix type="matrix" values="0 0 0 0 0.0862745 0 0 0 0 0.52549 0 0 0 0 0.933333 0 0 0 1 0"/>
<feBlend mode="normal" in2="effect1_innerShadow_461_957" result="effect2_innerShadow_461_957"/>
</filter>
<filter id="filter5_ii_461_957" x="16.4092" y="10.0682" width="1.65664" height="1.55676" filterUnits="userSpaceOnUse" color-interpolation-filters="sRGB">
<feFlood flood-opacity="0" result="BackgroundImageFix"/>
<feBlend mode="normal" in="SourceGraphic" in2="BackgroundImageFix" result="shape"/>
<feColorMatrix in="SourceAlpha" type="matrix" values="0 0 0 0 0 0 0 0 0 0 0 0 0 0 0 0 0 0 127 0" result="hardAlpha"/>
<feOffset dx="0.1"/>
<feGaussianBlur stdDeviation="0.1"/>
<feComposite in2="hardAlpha" operator="arithmetic" k2="-1" k3="1"/>
<feColorMatrix type="matrix" values="0 0 0 0 0.380392 0 0 0 0 1 0 0 0 0 1 0 0 0 1 0"/>
<feBlend mode="normal" in2="shape" result="effect1_innerShadow_461_957"/>
<feColorMatrix in="SourceAlpha" type="matrix" values="0 0 0 0 0 0 0 0 0 0 0 0 0 0 0 0 0 0 127 0" result="hardAlpha"/>
<feOffset dx="-0.125" dy="0.125"/>
<feGaussianBlur stdDeviation="0.1"/>
<feComposite in2="hardAlpha" operator="arithmetic" k2="-1" k3="1"/>
<feColorMatrix type="matrix" values="0 0 0 0 0.0862745 0 0 0 0 0.52549 0 0 0 0 0.933333 0 0 0 1 0"/>
<feBlend mode="normal" in2="effect1_innerShadow_461_957" result="effect2_innerShadow_461_957"/>
</filter>
<filter id="filter6_ii_461_957" x="18.554" y="10.0682" width="1.65664" height="1.55676" filterUnits="userSpaceOnUse" color-interpolation-filters="sRGB">
<feFlood flood-opacity="0" result="BackgroundImageFix"/>
<feBlend mode="normal" in="SourceGraphic" in2="BackgroundImageFix" result="shape"/>
<feColorMatrix in="SourceAlpha" type="matrix" values="0 0 0 0 0 0 0 0 0 0 0 0 0 0 0 0 0 0 127 0" result="hardAlpha"/>
<feOffset dx="0.1"/>
<feGaussianBlur stdDeviation="0.1"/>
<feComposite in2="hardAlpha" operator="arithmetic" k2="-1" k3="1"/>
<feColorMatrix type="matrix" values="0 0 0 0 0.380392 0 0 0 0 1 0 0 0 0 1 0 0 0 1 0"/>
<feBlend mode="normal" in2="shape" result="effect1_innerShadow_461_957"/>
<feColorMatrix in="SourceAlpha" type="matrix" values="0 0 0 0 0 0 0 0 0 0 0 0 0 0 0 0 0 0 127 0" result="hardAlpha"/>
<feOffset dx="-0.125" dy="0.125"/>
<feGaussianBlur stdDeviation="0.1"/>
<feComposite in2="hardAlpha" operator="arithmetic" k2="-1" k3="1"/>
<feColorMatrix type="matrix" values="0 0 0 0 0.0862745 0 0 0 0 0.52549 0 0 0 0 0.933333 0 0 0 1 0"/>
<feBlend mode="normal" in2="effect1_innerShadow_461_957" result="effect2_innerShadow_461_957"/>
</filter>
<filter id="filter7_ii_461_957" x="14.2644" y="12.2245" width="1.65664" height="1.55676" filterUnits="userSpaceOnUse" color-interpolation-filters="sRGB">
<feFlood flood-opacity="0" result="BackgroundImageFix"/>
<feBlend mode="normal" in="SourceGraphic" in2="BackgroundImageFix" result="shape"/>
<feColorMatrix in="SourceAlpha" type="matrix" values="0 0 0 0 0 0 0 0 0 0 0 0 0 0 0 0 0 0 127 0" result="hardAlpha"/>
<feOffset dx="0.1"/>
<feGaussianBlur stdDeviation="0.1"/>
<feComposite in2="hardAlpha" operator="arithmetic" k2="-1" k3="1"/>
<feColorMatrix type="matrix" values="0 0 0 0 0.380392 0 0 0 0 1 0 0 0 0 1 0 0 0 1 0"/>
<feBlend mode="normal" in2="shape" result="effect1_innerShadow_461_957"/>
<feColorMatrix in="SourceAlpha" type="matrix" values="0 0 0 0 0 0 0 0 0 0 0 0 0 0 0 0 0 0 127 0" result="hardAlpha"/>
<feOffset dx="-0.125" dy="0.125"/>
<feGaussianBlur stdDeviation="0.1"/>
<feComposite in2="hardAlpha" operator="arithmetic" k2="-1" k3="1"/>
<feColorMatrix type="matrix" values="0 0 0 0 0.0862745 0 0 0 0 0.52549 0 0 0 0 0.933333 0 0 0 1 0"/>
<feBlend mode="normal" in2="effect1_innerShadow_461_957" result="effect2_innerShadow_461_957"/>
</filter>
<filter id="filter8_ii_461_957" x="16.4092" y="12.2245" width="1.65664" height="1.55676" filterUnits="userSpaceOnUse" color-interpolation-filters="sRGB">
<feFlood flood-opacity="0" result="BackgroundImageFix"/>
<feBlend mode="normal" in="SourceGraphic" in2="BackgroundImageFix" result="shape"/>
<feColorMatrix in="SourceAlpha" type="matrix" values="0 0 0 0 0 0 0 0 0 0 0 0 0 0 0 0 0 0 127 0" result="hardAlpha"/>
<feOffset dx="0.1"/>
<feGaussianBlur stdDeviation="0.1"/>
<feComposite in2="hardAlpha" operator="arithmetic" k2="-1" k3="1"/>
<feColorMatrix type="matrix" values="0 0 0 0 0.380392 0 0 0 0 1 0 0 0 0 1 0 0 0 1 0"/>
<feBlend mode="normal" in2="shape" result="effect1_innerShadow_461_957"/>
<feColorMatrix in="SourceAlpha" type="matrix" values="0 0 0 0 0 0 0 0 0 0 0 0 0 0 0 0 0 0 127 0" result="hardAlpha"/>
<feOffset dx="-0.125" dy="0.125"/>
<feGaussianBlur stdDeviation="0.1"/>
<feComposite in2="hardAlpha" operator="arithmetic" k2="-1" k3="1"/>
<feColorMatrix type="matrix" values="0 0 0 0 0.0862745 0 0 0 0 0.52549 0 0 0 0 0.933333 0 0 0 1 0"/>
<feBlend mode="normal" in2="effect1_innerShadow_461_957" result="effect2_innerShadow_461_957"/>
</filter>
<filter id="filter9_ii_461_957" x="18.554" y="12.2245" width="1.65664" height="1.55676" filterUnits="userSpaceOnUse" color-interpolation-filters="sRGB">
<feFlood flood-opacity="0" result="BackgroundImageFix"/>
<feBlend mode="normal" in="SourceGraphic" in2="BackgroundImageFix" result="shape"/>
<feColorMatrix in="SourceAlpha" type="matrix" values="0 0 0 0 0 0 0 0 0 0 0 0 0 0 0 0 0 0 127 0" result="hardAlpha"/>
<feOffset dx="0.1"/>
<feGaussianBlur stdDeviation="0.1"/>
<feComposite in2="hardAlpha" operator="arithmetic" k2="-1" k3="1"/>
<feColorMatrix type="matrix" values="0 0 0 0 0.380392 0 0 0 0 1 0 0 0 0 1 0 0 0 1 0"/>
<feBlend mode="normal" in2="shape" result="effect1_innerShadow_461_957"/>
<feColorMatrix in="SourceAlpha" type="matrix" values="0 0 0 0 0 0 0 0 0 0 0 0 0 0 0 0 0 0 127 0" result="hardAlpha"/>
<feOffset dx="-0.125" dy="0.125"/>
<feGaussianBlur stdDeviation="0.1"/>
<feComposite in2="hardAlpha" operator="arithmetic" k2="-1" k3="1"/>
<feColorMatrix type="matrix" values="0 0 0 0 0.0862745 0 0 0 0 0.52549 0 0 0 0 0.933333 0 0 0 1 0"/>
<feBlend mode="normal" in2="effect1_innerShadow_461_957" result="effect2_innerShadow_461_957"/>
</filter>
<filter id="filter10_ii_461_957" x="14.2644" y="14.3807" width="1.65664" height="1.55676" filterUnits="userSpaceOnUse" color-interpolation-filters="sRGB">
<feFlood flood-opacity="0" result="BackgroundImageFix"/>
<feBlend mode="normal" in="SourceGraphic" in2="BackgroundImageFix" result="shape"/>
<feColorMatrix in="SourceAlpha" type="matrix" values="0 0 0 0 0 0 0 0 0 0 0 0 0 0 0 0 0 0 127 0" result="hardAlpha"/>
<feOffset dx="0.1"/>
<feGaussianBlur stdDeviation="0.1"/>
<feComposite in2="hardAlpha" operator="arithmetic" k2="-1" k3="1"/>
<feColorMatrix type="matrix" values="0 0 0 0 0.380392 0 0 0 0 1 0 0 0 0 1 0 0 0 1 0"/>
<feBlend mode="normal" in2="shape" result="effect1_innerShadow_461_957"/>
<feColorMatrix in="SourceAlpha" type="matrix" values="0 0 0 0 0 0 0 0 0 0 0 0 0 0 0 0 0 0 127 0" result="hardAlpha"/>
<feOffset dx="-0.125" dy="0.125"/>
<feGaussianBlur stdDeviation="0.1"/>
<feComposite in2="hardAlpha" operator="arithmetic" k2="-1" k3="1"/>
<feColorMatrix type="matrix" values="0 0 0 0 0.0862745 0 0 0 0 0.52549 0 0 0 0 0.933333 0 0 0 1 0"/>
<feBlend mode="normal" in2="effect1_innerShadow_461_957" result="effect2_innerShadow_461_957"/>
</filter>
<filter id="filter11_ii_461_957" x="16.4092" y="14.3807" width="1.65664" height="1.55676" filterUnits="userSpaceOnUse" color-interpolation-filters="sRGB">
<feFlood flood-opacity="0" result="BackgroundImageFix"/>
<feBlend mode="normal" in="SourceGraphic" in2="BackgroundImageFix" result="shape"/>
<feColorMatrix in="SourceAlpha" type="matrix" values="0 0 0 0 0 0 0 0 0 0 0 0 0 0 0 0 0 0 127 0" result="hardAlpha"/>
<feOffset dx="0.1"/>
<feGaussianBlur stdDeviation="0.1"/>
<feComposite in2="hardAlpha" operator="arithmetic" k2="-1" k3="1"/>
<feColorMatrix type="matrix" values="0 0 0 0 0.380392 0 0 0 0 1 0 0 0 0 1 0 0 0 1 0"/>
<feBlend mode="normal" in2="shape" result="effect1_innerShadow_461_957"/>
<feColorMatrix in="SourceAlpha" type="matrix" values="0 0 0 0 0 0 0 0 0 0 0 0 0 0 0 0 0 0 127 0" result="hardAlpha"/>
<feOffset dx="-0.125" dy="0.125"/>
<feGaussianBlur stdDeviation="0.1"/>
<feComposite in2="hardAlpha" operator="arithmetic" k2="-1" k3="1"/>
<feColorMatrix type="matrix" values="0 0 0 0 0.0862745 0 0 0 0 0.52549 0 0 0 0 0.933333 0 0 0 1 0"/>
<feBlend mode="normal" in2="effect1_innerShadow_461_957" result="effect2_innerShadow_461_957"/>
</filter>
<filter id="filter12_ii_461_957" x="18.554" y="14.3807" width="1.65664" height="1.55676" filterUnits="userSpaceOnUse" color-interpolation-filters="sRGB">
<feFlood flood-opacity="0" result="BackgroundImageFix"/>
<feBlend mode="normal" in="SourceGraphic" in2="BackgroundImageFix" result="shape"/>
<feColorMatrix in="SourceAlpha" type="matrix" values="0 0 0 0 0 0 0 0 0 0 0 0 0 0 0 0 0 0 127 0" result="hardAlpha"/>
<feOffset dx="0.1"/>
<feGaussianBlur stdDeviation="0.1"/>
<feComposite in2="hardAlpha" operator="arithmetic" k2="-1" k3="1"/>
<feColorMatrix type="matrix" values="0 0 0 0 0.380392 0 0 0 0 1 0 0 0 0 1 0 0 0 1 0"/>
<feBlend mode="normal" in2="shape" result="effect1_innerShadow_461_957"/>
<feColorMatrix in="SourceAlpha" type="matrix" values="0 0 0 0 0 0 0 0 0 0 0 0 0 0 0 0 0 0 127 0" result="hardAlpha"/>
<feOffset dx="-0.125" dy="0.125"/>
<feGaussianBlur stdDeviation="0.1"/>
<feComposite in2="hardAlpha" operator="arithmetic" k2="-1" k3="1"/>
<feColorMatrix type="matrix" values="0 0 0 0 0.0862745 0 0 0 0 0.52549 0 0 0 0 0.933333 0 0 0 1 0"/>
<feBlend mode="normal" in2="effect1_innerShadow_461_957" result="effect2_innerShadow_461_957"/>
</filter>
<linearGradient id="paint0_linear_461_957" x1="4.85156" y1="9.34664" x2="3.59231" y2="9.34664" gradientUnits="userSpaceOnUse">
<stop stop-color="#BEB7C0"/>
<stop offset="1" stop-color="#79727D"/>
</linearGradient>
<linearGradient id="paint1_linear_461_957" x1="5.75" y1="8.02198" x2="5.45819" y2="8.02198" gradientUnits="userSpaceOnUse">
<stop stop-color="#B1ABB1"/>
<stop offset="1" stop-color="#B1ABB1" stop-opacity="0"/>
</linearGradient>
<linearGradient id="paint2_linear_461_957" x1="4.15437" y1="14.104" x2="3.841" y2="13.4917" gradientUnits="userSpaceOnUse">
<stop stop-color="#6C6A6E"/>
<stop offset="1" stop-color="#6C6A6E" stop-opacity="0"/>
</linearGradient>
<linearGradient id="paint3_linear_461_957" x1="8.625" y1="7.86026" x2="10.7813" y2="7.86026" gradientUnits="userSpaceOnUse">
<stop stop-color="#84747F"/>
<stop offset="1" stop-color="#DBD7DF"/>
</linearGradient>
<linearGradient id="paint4_linear_461_957" x1="9.90797" y1="16.049" x2="9.90797" y2="10.7439" gradientUnits="userSpaceOnUse">
<stop stop-color="#746E74"/>
<stop offset="1" stop-color="#746E74" stop-opacity="0"/>
</linearGradient>
<linearGradient id="paint5_linear_461_957" x1="3.59375" y1="12.213" x2="5.12684" y2="12.213" gradientUnits="userSpaceOnUse">
<stop offset="0.065" stop-color="#A43953"/>
<stop offset="1" stop-color="#FF549C"/>
</linearGradient>
<linearGradient id="paint6_linear_461_957" x1="3.59375" y1="7.90051" x2="5.12684" y2="7.90051" gradientUnits="userSpaceOnUse">
<stop offset="0.065" stop-color="#A43953"/>
<stop offset="1" stop-color="#FF549C"/>
</linearGradient>
<linearGradient id="paint7_linear_461_957" x1="3.59375" y1="3.58801" x2="5.12684" y2="3.58801" gradientUnits="userSpaceOnUse">
<stop offset="0.065" stop-color="#A43953"/>
<stop offset="1" stop-color="#FF549C"/>
</linearGradient>
<linearGradient id="paint8_linear_461_957" x1="8.62859" y1="19.762" x2="10.7848" y2="19.762" gradientUnits="userSpaceOnUse">
<stop stop-color="#A93751"/>
<stop offset="1" stop-color="#FF5399"/>
</linearGradient>
<linearGradient id="paint9_linear_461_957" x1="8.62859" y1="15.4495" x2="10.7848" y2="15.4495" gradientUnits="userSpaceOnUse">
<stop stop-color="#A93751"/>
<stop offset="1" stop-color="#FF5399"/>
</linearGradient>
<linearGradient id="paint10_linear_461_957" x1="8.62859" y1="11.137" x2="10.7848" y2="11.137" gradientUnits="userSpaceOnUse">
<stop stop-color="#A93751"/>
<stop offset="1" stop-color="#FF5399"/>
</linearGradient>
<linearGradient id="paint11_linear_461_957" x1="17.25" y1="17.4355" x2="21.2693" y2="21.0112" gradientUnits="userSpaceOnUse">
<stop stop-color="#AAA2AF"/>
<stop offset="1" stop-color="#BCB3C3"/>
</linearGradient>
<linearGradient id="paint12_linear_461_957" x1="17.25" y1="8.61926" x2="17.25" y2="9.16695" gradientUnits="userSpaceOnUse">
<stop stop-color="#B1B0B1" stop-opacity="0.94"/>
<stop offset="1" stop-color="#B1B0B1" stop-opacity="0"/>
</linearGradient>
<linearGradient id="paint13_linear_461_957" x1="12.9375" y1="16.9812" x2="13.5197" y2="16.9812" gradientUnits="userSpaceOnUse">
<stop stop-color="#6D6573"/>
<stop offset="1" stop-color="#6E6575" stop-opacity="0"/>
</linearGradient>
<linearGradient id="paint14_linear_461_957" x1="21.5625" y1="16.2502" x2="20.8531" y2="16.2502" gradientUnits="userSpaceOnUse">
<stop stop-color="#D9D5DB"/>
<stop offset="1" stop-color="#D9D5DB" stop-opacity="0"/>
</linearGradient>
<radialGradient id="paint15_radial_461_957" cx="0" cy="0" r="1" gradientUnits="userSpaceOnUse" gradientTransform="translate(21.5625 8.87298) rotate(135.743) scale(0.670883 1.11339)">
<stop stop-color="#D9D5DB"/>
<stop offset="1" stop-color="#D9D5DB" stop-opacity="0"/>
</radialGradient>
<linearGradient id="paint16_linear_461_957" x1="21.5625" y1="14.4641" x2="21.3763" y2="14.4641" gradientUnits="userSpaceOnUse">
<stop stop-color="#CAC6CD"/>
<stop offset="1" stop-color="#CAC6CD" stop-opacity="0"/>
</linearGradient>
<linearGradient id="paint17_linear_461_957" x1="2.44734" y1="19.1418" x2="13.3098" y2="19.1418" gradientUnits="userSpaceOnUse">
<stop stop-color="#A19BA6"/>
<stop offset="1" stop-color="#B3A8BA"/>
</linearGradient>
<linearGradient id="paint18_linear_461_957" x1="13.2236" y1="18.2412" x2="12.2662" y2="18.2412" gradientUnits="userSpaceOnUse">
<stop stop-color="#6F6574"/>
<stop offset="1" stop-color="#6F6574" stop-opacity="0"/>
</linearGradient>
<linearGradient id="paint19_linear_461_957" x1="1.4375" y1="19.1123" x2="2.0815" y2="19.1123" gradientUnits="userSpaceOnUse">
<stop stop-color="#726D76"/>
<stop offset="1" stop-color="#726D76" stop-opacity="0"/>
</linearGradient>
<radialGradient id="paint20_radial_461_957" cx="0" cy="0" r="1" gradientUnits="userSpaceOnUse" gradientTransform="translate(7.37581 14.7272) rotate(-160.973) scale(0.41241 0.537601)">
<stop offset="0.226" stop-color="#CECBD0"/>
<stop offset="1" stop-color="#CECBD0" stop-opacity="0"/>
</radialGradient>
<linearGradient id="paint21_linear_461_957" x1="13.2236" y1="18.2412" x2="12.2662" y2="18.2412" gradientUnits="userSpaceOnUse">
<stop stop-color="#6F6574"/>
<stop offset="1" stop-color="#6F6574" stop-opacity="0"/>
</linearGradient>
<linearGradient id="paint22_linear_461_957" x1="2.875" y1="20.7618" x2="6.11584" y2="20.7618" gradientUnits="userSpaceOnUse">
<stop stop-color="#544266"/>
<stop offset="1" stop-color="#42394B"/>
</linearGradient>
<linearGradient id="paint23_linear_461_957" x1="7.90625" y1="20.7618" x2="11.1471" y2="20.7618" gradientUnits="userSpaceOnUse">
<stop stop-color="#544266"/>
<stop offset="1" stop-color="#42394B"/>
</linearGradient>
<linearGradient id="paint24_linear_461_957" x1="15.0938" y1="20.4966" x2="18.9829" y2="20.4966" gradientUnits="userSpaceOnUse">
<stop stop-color="#544266"/>
<stop offset="1" stop-color="#42394B"/>
</linearGradient>
<linearGradient id="paint25_linear_461_957" x1="14.4642" y1="11.5" x2="15.3094" y2="9.56655" gradientUnits="userSpaceOnUse">
<stop stop-color="#54E6FF"/>
<stop offset="1" stop-color="#42A9FF"/>
</linearGradient>
<linearGradient id="paint26_linear_461_957" x1="16.6089" y1="11.5" x2="17.4549" y2="9.56655" gradientUnits="userSpaceOnUse">
<stop stop-color="#54E6FF"/>
<stop offset="1" stop-color="#42A9FF"/>
</linearGradient>
<linearGradient id="paint27_linear_461_957" x1="18.7544" y1="11.5" x2="19.5997" y2="9.56655" gradientUnits="userSpaceOnUse">
<stop stop-color="#54E6FF"/>
<stop offset="1" stop-color="#42A9FF"/>
</linearGradient>
<linearGradient id="paint28_linear_461_957" x1="14.4642" y1="13.6562" x2="15.3094" y2="11.7228" gradientUnits="userSpaceOnUse">
<stop stop-color="#54E6FF"/>
<stop offset="1" stop-color="#42A9FF"/>
</linearGradient>
<linearGradient id="paint29_linear_461_957" x1="16.6089" y1="13.6562" x2="17.4549" y2="11.7228" gradientUnits="userSpaceOnUse">
<stop stop-color="#54E6FF"/>
<stop offset="1" stop-color="#42A9FF"/>
</linearGradient>
<linearGradient id="paint30_linear_461_957" x1="18.7544" y1="13.6562" x2="19.5997" y2="11.7228" gradientUnits="userSpaceOnUse">
<stop stop-color="#54E6FF"/>
<stop offset="1" stop-color="#42A9FF"/>
</linearGradient>
<linearGradient id="paint31_linear_461_957" x1="14.4642" y1="15.8125" x2="15.3094" y2="13.8791" gradientUnits="userSpaceOnUse">
<stop stop-color="#54E6FF"/>
<stop offset="1" stop-color="#42A9FF"/>
</linearGradient>
<linearGradient id="paint32_linear_461_957" x1="16.6089" y1="15.8125" x2="17.4549" y2="13.879" gradientUnits="userSpaceOnUse">
<stop stop-color="#54E6FF"/>
<stop offset="1" stop-color="#42A9FF"/>
</linearGradient>
<linearGradient id="paint33_linear_461_957" x1="18.7544" y1="15.8125" x2="19.5997" y2="13.8791" gradientUnits="userSpaceOnUse">
<stop stop-color="#54E6FF"/>
<stop offset="1" stop-color="#42A9FF"/>
</linearGradient>
</defs>
</svg>
