<svg width="23" height="23" viewBox="0 0 23 23" fill="none" xmlns="http://www.w3.org/2000/svg">
<g clip-path="url(#clip0_461_951)">
<path d="M5.03125 1.61724V21.3829C5.03125 22.6047 7.1875 22.6047 7.1875 21.3829V1.61724C7.1875 0.431299 5.03125 0.431299 5.03125 1.61724Z" fill="#333333"/>
<path d="M2.37187 15.0938H9.84688C10.7453 15.0938 11.5 14.2672 11.5 13.2969C11.5 12.3266 10.7453 11.5 9.84688 11.5H2.37187C1.47344 11.5 0.71875 12.3266 0.71875 13.2969C0.71875 14.2672 1.47344 15.0938 2.37187 15.0938Z" fill="#6D7275"/>
<path d="M2.47974 14.2312H9.73911C10.6016 14.2312 11.3563 13.6203 11.3563 12.8656C11.3563 12.1109 10.6375 11.5 9.73911 11.5H2.47974C1.61724 11.5 0.862549 12.1109 0.862549 12.8656C0.862549 13.6203 1.5813 14.2312 2.47974 14.2312Z" fill="#94989B"/>
<path d="M21.2031 3.59375H14.0156C12.5781 3.59375 12.5781 1.4375 14.0156 1.4375H21.2031C22.6406 1.4375 22.6406 3.59375 21.2031 3.59375ZM20.4844 7.1875H14.0156C12.5781 7.1875 12.5781 5.03125 14.0156 5.03125H20.4844C21.9219 5.03125 21.9219 7.1875 20.4844 7.1875ZM19.7656 10.7812H14.0156C12.5781 10.7812 12.5781 8.625 14.0156 8.625H19.7656C21.2031 8.625 21.2031 10.7812 19.7656 10.7812Z" fill="#5B636B"/>
<path d="M19.0469 14.375H14.0156C12.5781 14.375 12.5781 12.2188 14.0156 12.2188H19.0469C20.4844 12.2188 20.4844 14.375 19.0469 14.375ZM18.3281 17.9688H14.0156C12.5781 17.9688 12.5781 15.8125 14.0156 15.8125H18.3281C19.7656 15.8125 19.7656 17.9688 18.3281 17.9688ZM17.6094 21.5625H14.0156C12.5781 21.5625 12.5781 19.4062 14.0156 19.4062H17.6094C19.0469 19.4062 19.0469 21.5625 17.6094 21.5625Z" fill="#C7E755"/>
</g>
<defs>
<clipPath id="clip0_461_951">
<rect width="23" height="23" fill="white"/>
</clipPath>
</defs>
</svg>
