<svg width="48" height="44" viewBox="0 0 48 44" fill="none" xmlns="http://www.w3.org/2000/svg">
<path d="M24 0L29.3883 15.2016H46.8254L32.7185 24.5967L38.1068 39.7984L24 30.4033L9.89315 39.7984L15.2815 24.5967L1.17464 15.2016H18.6117L24 0Z" fill="#FFDA42"/>
<path d="M23.8486 20.8887C24.5277 20.8887 25.1178 21.0049 25.6191 21.2373C26.1204 21.4652 26.5078 21.7979 26.7812 22.2354C27.0592 22.6729 27.1982 23.2038 27.1982 23.8281C27.1982 24.5117 27.0501 25.1019 26.7539 25.5986C26.4577 26.0908 26.0316 26.4714 25.4756 26.7402C24.9196 27.0046 24.2542 27.1367 23.4795 27.1367C22.96 27.1367 22.4769 27.0911 22.0303 27C21.5837 26.9089 21.2077 26.7721 20.9023 26.5898V25.5098C21.235 25.7103 21.6383 25.8698 22.1123 25.9883C22.5863 26.1068 23.0465 26.166 23.4932 26.166C23.999 26.166 24.4411 26.0863 24.8193 25.9268C25.2021 25.7627 25.4984 25.5166 25.708 25.1885C25.9222 24.8558 26.0293 24.4388 26.0293 23.9375C26.0293 23.2721 25.8242 22.7594 25.4141 22.3994C25.0085 22.0348 24.3659 21.8525 23.4863 21.8525C23.2038 21.8525 22.8939 21.8753 22.5566 21.9209C22.2194 21.9665 21.9414 22.0166 21.7227 22.0713L21.1484 21.6953L21.5312 17.0059H26.501V18.0449H22.502L22.249 21.0596C22.4222 21.0231 22.6455 20.9867 22.9189 20.9502C23.1924 20.9092 23.5023 20.8887 23.8486 20.8887Z" fill="black"/>
</svg>
